<svg xmlns="http://www.w3.org/2000/svg" viewBox="0 0 119.33 74.73"><defs><style>.cls-1,.cls-5{fill:#fff;}.cls-1,.cls-2,.cls-3,.cls-5{stroke:#23212c;}.cls-1,.cls-2,.cls-3,.cls-5,.cls-6{stroke-miterlimit:10;}.cls-1,.cls-3,.cls-6{stroke-width:2px;}.cls-2{fill:#fcd615;stroke-width:2.5px;}.cls-3,.cls-6{fill:none;}.cls-4{fill:#23212c;}.cls-5{stroke-width:3px;}.cls-6{stroke:#fff;stroke-linecap:round;}</style></defs><g id="Layer_2" data-name="Layer 2"><g id="Layer_1-2" data-name="Layer 1"><path class="cls-1" d="M84.79,63.05c-5.13,0-7-.15-7-5.92s2.38-10.39,7.51-10.39,11,4.62,11,10.39S89.91,63.05,84.79,63.05Z"/><path class="cls-2" d="M63.56,72.05a21.55,21.55,0,0,0,9.29-5.3c6-6,5.55-14.74-1.64-19.77-8-5.65-20.28-3.3-29.18,1-6,2.9-21.29,9.77-18.45,16.55,1.83,4.37,11.78,6.64,16.92,7.68C47.67,73.64,56.3,74.21,63.56,72.05Z"/><path class="cls-3" d="M52.4,44.36s13.43,10.23,5,28.94"/><path class="cls-3" d="M35.29,51s12.87,7,3.62,21.13"/><path class="cls-4" d="M91.8,49.88c-1.25-.12.62-3.17.83-3.64,3.9-8.56,11.72-14.41,21-16.77a14.06,14.06,0,0,1,3.65-.53,2.54,2.54,0,0,1,1.36.3c1,.64.84,2.28,0,3.15-2.69,2.73-7.15,2-10.5,3.2a27.46,27.46,0,0,0-9.34,6,25.69,25.69,0,0,0-3.71,4.74c-.64,1-1.54,3.27-2.91,3.56A1.1,1.1,0,0,1,91.8,49.88Z"/><path class="cls-4" d="M89.67,48.52c-.89.3-1.14-3-1.22-3.5-1.58-8.87.78-16.62,5.79-21.75a7.56,7.56,0,0,1,2.16-1.66,1.58,1.58,0,0,1,1-.18c1,.23,1.68,1.75,1.53,2.81-.46,3.29-3.79,4.1-5.42,6.27a19.33,19.33,0,0,0-3.31,8.34,25,25,0,0,0-.16,5.42c0,1.09.56,3.4-.2,4.11A.62.62,0,0,1,89.67,48.52Z"/><path class="cls-5" d="M49.18,40c2.93,2.35,15.86,12.72,14.53,2a70.35,70.35,0,0,0-6.35-21.28A85.68,85.68,0,0,0,49.94,7.87C48.18,5.39,43-1,39.46,2.54a5.89,5.89,0,0,0-1.23,1.92C33,16.51,40,32.6,49.18,40Z"/><path class="cls-5" d="M42.68,48.71c5.27.65,28.53,3.45,18.42-8.09A105.78,105.78,0,0,0,36.81,20.46,129.08,129.08,0,0,0,18,10.91C14,9.28,3,5.56,1.61,12.2a7.78,7.78,0,0,0,.11,3.11C5.24,33,26.17,46.69,42.68,48.71Z"/><path class="cls-6" d="M72.07,59.92a11.91,11.91,0,0,1-4.26,5.2,11.55,11.55,0,0,1-4.19,1.75"/></g></g></svg>