<svg xmlns="http://www.w3.org/2000/svg" viewBox="0 0 108.5 58.22"><defs><style>.cls-1,.cls-5{fill:#fff;}.cls-1,.cls-2,.cls-3,.cls-5{stroke:#23212c;}.cls-1,.cls-2,.cls-3,.cls-5,.cls-6{stroke-miterlimit:10;}.cls-1,.cls-3,.cls-6{stroke-width:2px;}.cls-2{fill:#fcd615;stroke-width:2.5px;}.cls-3,.cls-6{fill:none;}.cls-4{fill:#23212c;}.cls-5{stroke-width:3px;}.cls-6{stroke:#fff;stroke-linecap:round;}</style></defs><g id="Layer_2" data-name="Layer 2"><g id="Layer_1-2" data-name="Layer 1"><path class="cls-1" d="M74,41.65c-5.13,0-7-.15-7-5.92s2.38-10.39,7.51-10.39,11,4.62,11,10.39S79.08,41.65,74,41.65Z"/><path class="cls-2" d="M52.73,50.65A21.55,21.55,0,0,0,62,45.35c6-6,5.55-14.74-1.64-19.77-8-5.65-20.28-3.3-29.18,1-6,2.9-21.29,9.77-18.45,16.55,1.83,4.37,11.78,6.64,16.92,7.68C36.84,52.24,45.47,52.81,52.73,50.65Z"/><path class="cls-3" d="M41.57,23S55,33.19,46.53,51.9"/><path class="cls-3" d="M24.46,29.55s12.87,7,3.62,21.13"/><path class="cls-4" d="M81,28.48c-1.25-.12.62-3.17.83-3.63,3.9-8.57,11.72-14.42,21-16.78a14.06,14.06,0,0,1,3.65-.53,2.54,2.54,0,0,1,1.36.3c1,.64.84,2.28,0,3.15-2.69,2.73-7.15,2-10.5,3.2a27.46,27.46,0,0,0-9.34,6,25.69,25.69,0,0,0-3.71,4.74c-.64,1-1.54,3.27-2.91,3.56A1.1,1.1,0,0,1,81,28.48Z"/><path class="cls-4" d="M78.84,27.12c-.89.3-1.14-3-1.22-3.49C76,14.75,78.4,7,83.41,1.87A7.74,7.74,0,0,1,85.57.21,1.58,1.58,0,0,1,86.62,0c1,.23,1.68,1.75,1.53,2.81-.46,3.29-3.79,4.1-5.42,6.27a19.33,19.33,0,0,0-3.31,8.34,25,25,0,0,0-.16,5.42c0,1.09.56,3.41-.2,4.11A.62.62,0,0,1,78.84,27.12Z"/><path class="cls-5" d="M52.23,17.64c1.62,2.7,8.7,14.62-1.46,12a71.91,71.91,0,0,1-19.22-8.23,75.59,75.59,0,0,1-10.72-7.85c-2-1.78-7-6.85-2.77-9.21a7.2,7.2,0,0,1,2.16-.7C33.15,1.19,47.17,9.19,52.23,17.64Z"/><path class="cls-5" d="M35.88,25.57c4.95-.75,26.77-4,18.76,4.86A82.76,82.76,0,0,1,34.3,46.36,122.53,122.53,0,0,1,17.71,54.3C14.1,55.69,4.09,59,1.86,54.25A4.52,4.52,0,0,1,1.52,52C2.36,39,20.41,27.94,35.88,25.57Z"/><path class="cls-6" d="M61.24,38.52A11.91,11.91,0,0,1,57,43.72a11.55,11.55,0,0,1-4.19,1.75"/></g></g></svg>