<svg xmlns="http://www.w3.org/2000/svg" viewBox="0 0 110.67 74.18"><defs><style>.cls-1,.cls-5{fill:#fff;}.cls-1,.cls-2,.cls-3,.cls-5{stroke:#23212c;}.cls-1,.cls-2,.cls-3,.cls-5,.cls-6{stroke-miterlimit:10;}.cls-1,.cls-3,.cls-6{stroke-width:2px;}.cls-2{fill:#fcd615;stroke-width:2.5px;}.cls-3,.cls-6{fill:none;}.cls-4{fill:#23212c;}.cls-5{stroke-width:3px;}.cls-6{stroke:#fff;stroke-linecap:round;}</style></defs><g id="Layer_2" data-name="Layer 2"><g id="Layer_1-2" data-name="Layer 1"><path class="cls-1" d="M76.12,41.65c-5.12,0-7-.15-7-5.92s2.38-10.39,7.51-10.39,11,4.62,11,10.39S81.25,41.65,76.12,41.65Z"/><path class="cls-2" d="M54.9,50.65a21.61,21.61,0,0,0,9.29-5.3c6-6,5.54-14.74-1.64-19.77-8-5.65-20.28-3.3-29.18,1-6,2.9-21.3,9.77-18.46,16.55,1.84,4.37,11.79,6.64,16.93,7.68C39,52.24,47.64,52.81,54.9,50.65Z"/><path class="cls-3" d="M43.74,23s13.42,10.23,5,28.94"/><path class="cls-3" d="M26.63,29.55s12.87,7,3.62,21.13"/><path class="cls-4" d="M83.13,28.48c-1.24-.12.62-3.17.83-3.63,3.9-8.57,11.73-14.42,21-16.78a14,14,0,0,1,3.64-.53,2.58,2.58,0,0,1,1.37.3c1,.64.84,2.28,0,3.15-2.68,2.73-7.15,2-10.5,3.2a27.46,27.46,0,0,0-9.34,6,26.06,26.06,0,0,0-3.7,4.74c-.65,1-1.55,3.27-2.91,3.56A1.19,1.19,0,0,1,83.13,28.48Z"/><path class="cls-4" d="M81,27.12c-.89.3-1.13-3-1.22-3.49C78.21,14.75,80.56,7,85.57,1.87A8,8,0,0,1,87.73.21,1.6,1.6,0,0,1,88.79,0c1,.23,1.67,1.75,1.52,2.81-.45,3.29-3.78,4.1-5.42,6.27a19.45,19.45,0,0,0-3.31,8.34,25.61,25.61,0,0,0-.16,5.42c.06,1.09.56,3.41-.2,4.11A.62.62,0,0,1,81,27.12Z"/><path class="cls-5" d="M38.69,20.83c4.72.24,25.53,1.33,16.37,9A76.61,76.61,0,0,1,33.12,42.17,106.12,106.12,0,0,1,16.23,47c-3.61.71-13.52,2.07-14.64-3.33a5.24,5.24,0,0,1,.13-2.43C5.07,27.85,23.92,20.08,38.69,20.83Z"/><path class="cls-5" d="M36.48,31.27c4.6-2.58,24.92-13.9,20.31-2.33A86.4,86.4,0,0,1,42.63,51.87,128.63,128.63,0,0,1,29.19,65.71c-3,2.7-11.7,9.62-15.67,5.89a4.6,4.6,0,0,1-1.17-2C8.36,56.7,22.07,39.33,36.48,31.27Z"/><path class="cls-6" d="M63.4,38.52a11.84,11.84,0,0,1-4.26,5.2A11.52,11.52,0,0,1,55,45.47"/></g></g></svg>