<svg xmlns="http://www.w3.org/2000/svg" viewBox="0 0 78.76 90.87"><defs><style>.cls-1,.cls-5{fill:none;}.cls-1,.cls-2,.cls-3,.cls-5{stroke:#000;stroke-linecap:round;stroke-linejoin:round;}.cls-1{stroke-width:2px;}.cls-2{fill:#fff;}.cls-3{fill:#fcd615;}.cls-4{fill:#3a3637;}.cls-6{font-size:14.57px;font-family:MyriadPro-Regular, Myriad Pro;}</style></defs><g id="Layer_2" data-name="Layer 2"><g id="Layer_1-2" data-name="Layer 1"><line class="cls-1" x1="44.85" y1="39.89" x2="41.99" y2="45.26"/><polyline class="cls-2" points="78.27 25.95 58.35 3.6 58.35 0.5 23.79 5.95 23.79 9.17 0.5 27.75 3.03 29.09"/><polyline class="cls-3" points="41.99 90.37 76.24 72.62 76.24 30.64 41.99 45.26 41.99 90.37 5.65 77.01 5.65 37.54 41.99 45.26"/><polyline class="cls-2" points="0.5 27.75 3.03 29.09 43.42 42.58 76.24 28.72 78.27 25.95"/><polyline class="cls-2" points="41.99 45.26 76.24 30.64 78.27 25.95 45.1 39.71 24.52 12.19 3.03 29.09 5.65 37.54"/><polyline class="cls-2" points="26.7 5.95 26.7 9.39 48.27 38.4"/><ellipse class="cls-4" cx="22.79" cy="24.36" rx="2.3" ry="3.28"/><line class="cls-5" x1="41.99" y1="45.26" x2="45.1" y2="39.71"/><text class="cls-6" transform="translate(12.23 67.74)">489</text></g></g></svg>