<svg xmlns="http://www.w3.org/2000/svg" viewBox="0 0 179.62 112.87"><defs><style>.cls-1{fill:#fcd615;}.cls-2{fill:#c93;}.cls-3{fill:none;stroke:#fff;stroke-linecap:round;stroke-miterlimit:10;stroke-width:2px;}.cls-4{fill:#fff2bd;}</style></defs><g id="Layer_2" data-name="Layer 2"><g id="Layer_1-2" data-name="Layer 1"><path class="cls-1" d="M9.73,57a4.7,4.7,0,0,1-4.08-2.36l-4-7a4.72,4.72,0,0,1,0-4.71l4-7a4.71,4.71,0,0,1,4.08-2.35h8a4.74,4.74,0,0,1,4.08,2.35l4,7a4.72,4.72,0,0,1,0,4.71l-4,7A4.72,4.72,0,0,1,17.76,57Z"/><path class="cls-2" d="M17.76,34.71A3.72,3.72,0,0,1,21,36.56l4,7a3.72,3.72,0,0,1,0,3.71l-4,7A3.71,3.71,0,0,1,17.76,56h-8a3.72,3.72,0,0,1-3.22-1.86l-4-7a3.72,3.72,0,0,1,0-3.71l4-7a3.74,3.74,0,0,1,3.22-1.85h8m0-2h-8a5.73,5.73,0,0,0-4.95,2.85l-4,7a5.66,5.66,0,0,0,0,5.71l4,7a5.72,5.72,0,0,0,5,2.86h8a5.7,5.7,0,0,0,4.94-2.86l4-7a5.71,5.71,0,0,0,0-5.71l-4-7a5.71,5.71,0,0,0-4.94-2.85Z"/><path class="cls-3" d="M4.07,45.57l4.51-7.81a1.73,1.73,0,0,1,1.47-.85h9"/><path class="cls-1" d="M60,26.54A4.73,4.73,0,0,1,56,24.18l-4-6.95a4.78,4.78,0,0,1,0-4.72l4-6.95A4.71,4.71,0,0,1,60,3.2h8a4.71,4.71,0,0,1,4.08,2.36l4,7a4.74,4.74,0,0,1,0,4.72l-4,7a4.73,4.73,0,0,1-4.08,2.36Z"/><path class="cls-2" d="M68.07,4.2a3.74,3.74,0,0,1,3.22,1.86l4,7a3.74,3.74,0,0,1,0,3.72l-4,7a3.75,3.75,0,0,1-3.22,1.85H60a3.75,3.75,0,0,1-3.22-1.85l-4-6.95a3.74,3.74,0,0,1,0-3.72l4-6.95A3.74,3.74,0,0,1,60,4.2h8m0-2H60a5.72,5.72,0,0,0-4.95,2.86l-4,7a5.73,5.73,0,0,0,0,5.72l4,7A5.71,5.71,0,0,0,60,27.53h8a5.71,5.71,0,0,0,5-2.85l4-6.95A5.73,5.73,0,0,0,77,12L73,5.06a5.72,5.72,0,0,0-5-2.86Z"/><path class="cls-3" d="M54.39,15.07,58.9,7.26a1.68,1.68,0,0,1,1.46-.85h9"/><path class="cls-4" d="M60.82,110.54a4.7,4.7,0,0,1-4.08-2.36L53,101.68A4.74,4.74,0,0,1,53,97l3.76-6.5a4.72,4.72,0,0,1,4.08-2.36h7.51a4.73,4.73,0,0,1,4.08,2.36L76.17,97a4.74,4.74,0,0,1,0,4.72l-3.76,6.5a4.71,4.71,0,0,1-4.08,2.36Z"/><path class="cls-2" d="M68.33,89.1A3.71,3.71,0,0,1,71.54,91l3.76,6.5a3.74,3.74,0,0,1,0,3.72l-3.76,6.5a3.71,3.71,0,0,1-3.21,1.86H60.82a3.72,3.72,0,0,1-3.22-1.86l-3.75-6.5a3.69,3.69,0,0,1,0-3.72L57.6,91a3.72,3.72,0,0,1,3.22-1.86h7.51m0-2H60.82a5.72,5.72,0,0,0-5,2.86l-3.76,6.5a5.73,5.73,0,0,0,0,5.72l3.76,6.5a5.72,5.72,0,0,0,5,2.86h7.51a5.72,5.72,0,0,0,5-2.86l3.75-6.5a5.73,5.73,0,0,0,0-5.72L73.28,90a5.72,5.72,0,0,0-5-2.86Z"/><path class="cls-3" d="M55.25,99.51,59.6,92A1.62,1.62,0,0,1,61,91.16h8.7"/><path class="cls-1" d="M60,55.24A4.72,4.72,0,0,1,56,52.89l-4-7a4.77,4.77,0,0,1,0-4.71l4-6.95A4.71,4.71,0,0,1,60,31.91h8a4.71,4.71,0,0,1,4.08,2.36l4,6.95a4.72,4.72,0,0,1,0,4.71l-4,7a4.72,4.72,0,0,1-4.08,2.35Z"/><path class="cls-2" d="M68.07,32.91a3.74,3.74,0,0,1,3.22,1.86l4,6.95a3.72,3.72,0,0,1,0,3.71l-4,7a3.75,3.75,0,0,1-3.22,1.85H60a3.75,3.75,0,0,1-3.22-1.85l-4-7a3.72,3.72,0,0,1,0-3.71l4-6.95A3.74,3.74,0,0,1,60,32.91h8m0-2H60a5.72,5.72,0,0,0-4.95,2.86l-4,6.95a5.71,5.71,0,0,0,0,5.71l4,7A5.73,5.73,0,0,0,60,56.24h8a5.73,5.73,0,0,0,5-2.85l4-7a5.71,5.71,0,0,0,0-5.71l-4-6.95a5.72,5.72,0,0,0-5-2.86Z"/><path class="cls-3" d="M54.39,43.78,58.9,36a1.69,1.69,0,0,1,1.46-.84h9"/><path class="cls-1" d="M85.07,68.55A4.73,4.73,0,0,1,81,66.19l-4-6.95a4.72,4.72,0,0,1,0-4.71l4-7a4.73,4.73,0,0,1,4.09-2.36h8a4.73,4.73,0,0,1,4.09,2.36l4,7a4.72,4.72,0,0,1,0,4.71l-4,6.95a4.73,4.73,0,0,1-4.09,2.36Z"/><path class="cls-2" d="M93.09,46.22a3.72,3.72,0,0,1,3.22,1.85l4,7a3.68,3.68,0,0,1,0,3.71l-4,6.95a3.71,3.71,0,0,1-3.22,1.86h-8a3.71,3.71,0,0,1-3.22-1.86l-4-6.95a3.72,3.72,0,0,1,0-3.71l4-7a3.72,3.72,0,0,1,3.22-1.85h8m0-2h-8a5.72,5.72,0,0,0-4.95,2.85l-4,7a5.71,5.71,0,0,0,0,5.71l4,6.95a5.7,5.7,0,0,0,4.95,2.86h8a5.72,5.72,0,0,0,5-2.86l4-6.95a5.71,5.71,0,0,0,0-5.71l-4-7a5.73,5.73,0,0,0-5-2.85Z"/><path class="cls-3" d="M79.41,57.09l4.51-7.82a1.69,1.69,0,0,1,1.47-.84h9"/><path class="cls-4" d="M60.82,82.18a4.72,4.72,0,0,1-4.08-2.36L53,73.31a4.72,4.72,0,0,1,0-4.71l3.76-6.5a4.7,4.7,0,0,1,4.08-2.36h7.51a4.71,4.71,0,0,1,4.08,2.36l3.76,6.5a4.72,4.72,0,0,1,0,4.71l-3.76,6.51a4.73,4.73,0,0,1-4.08,2.36Z"/><path class="cls-2" d="M68.33,60.74a3.71,3.71,0,0,1,3.21,1.86l3.76,6.5a3.72,3.72,0,0,1,0,3.71l-3.76,6.51a3.73,3.73,0,0,1-3.21,1.86H60.82a3.75,3.75,0,0,1-3.22-1.86l-3.75-6.51a3.68,3.68,0,0,1,0-3.71l3.75-6.5a3.72,3.72,0,0,1,3.22-1.86h7.51m0-2H60.82a5.72,5.72,0,0,0-5,2.86l-3.76,6.5a5.71,5.71,0,0,0,0,5.71l3.76,6.51a5.72,5.72,0,0,0,5,2.86h7.51a5.72,5.72,0,0,0,5-2.86L77,73.81a5.71,5.71,0,0,0,0-5.71l-3.75-6.5a5.72,5.72,0,0,0-5-2.86Z"/><path class="cls-3" d="M55.25,71.15l4.35-7.53A1.62,1.62,0,0,1,61,62.8h8.7"/><path class="cls-4" d="M137.17,96.44a4.73,4.73,0,0,1-4.08-2.36l-3.75-6.51a4.67,4.67,0,0,1,0-4.71l3.75-6.5A4.71,4.71,0,0,1,137.17,74h7.51a4.7,4.7,0,0,1,4.08,2.36l3.76,6.5a4.72,4.72,0,0,1,0,4.71l-3.76,6.51a4.72,4.72,0,0,1-4.08,2.36Z"/><path class="cls-2" d="M144.68,75a3.71,3.71,0,0,1,3.22,1.86l3.75,6.5a3.68,3.68,0,0,1,0,3.71l-3.75,6.51a3.73,3.73,0,0,1-3.22,1.86h-7.51A3.73,3.73,0,0,1,134,93.58l-3.76-6.51a3.72,3.72,0,0,1,0-3.71l3.76-6.5A3.71,3.71,0,0,1,137.17,75h7.51m0-2h-7.51a5.72,5.72,0,0,0-4.95,2.86l-3.75,6.5a5.71,5.71,0,0,0,0,5.71l3.75,6.51a5.72,5.72,0,0,0,4.95,2.86h7.51a5.72,5.72,0,0,0,4.95-2.86l3.76-6.51a5.71,5.71,0,0,0,0-5.71l-3.76-6.5A5.72,5.72,0,0,0,144.68,73Z"/><path class="cls-3" d="M131.6,85.41,136,77.87a1.64,1.64,0,0,1,1.42-.81h8.7"/><path class="cls-1" d="M84.44,40a4.73,4.73,0,0,1-4.08-2.36l-4-7a4.74,4.74,0,0,1,0-4.72l4-6.95a4.73,4.73,0,0,1,4.08-2.36h8A4.73,4.73,0,0,1,96.55,19l4,7a4.74,4.74,0,0,1,0,4.72l-4,7A4.73,4.73,0,0,1,92.47,40Z"/><path class="cls-2" d="M92.47,17.65a3.75,3.75,0,0,1,3.22,1.86l4,7a3.74,3.74,0,0,1,0,3.72l-4,7A3.72,3.72,0,0,1,92.47,39h-8a3.71,3.71,0,0,1-3.21-1.86l-4-7a3.74,3.74,0,0,1,0-3.72l4-6.95a3.73,3.73,0,0,1,3.21-1.86h8m0-2h-8a5.72,5.72,0,0,0-5,2.86l-4,7a5.73,5.73,0,0,0,0,5.72l4,7a5.72,5.72,0,0,0,5,2.86h8a5.72,5.72,0,0,0,5-2.86l4-7a5.73,5.73,0,0,0,0-5.72l-4-6.95a5.72,5.72,0,0,0-5-2.86Z"/><path class="cls-3" d="M78.79,28.52l4.51-7.81a1.68,1.68,0,0,1,1.46-.85h9"/><path class="cls-1" d="M34.79,69.71a4.73,4.73,0,0,1-4.08-2.36l-4-6.95a4.74,4.74,0,0,1,0-4.72l4-7a4.73,4.73,0,0,1,4.08-2.36h8a4.73,4.73,0,0,1,4.08,2.36l4,7a4.74,4.74,0,0,1,0,4.72l-4,6.95a4.73,4.73,0,0,1-4.08,2.36Z"/><path class="cls-2" d="M42.82,47.37A3.72,3.72,0,0,1,46,49.23l4,7a3.74,3.74,0,0,1,0,3.72l-4,6.95a3.72,3.72,0,0,1-3.22,1.86h-8a3.71,3.71,0,0,1-3.21-1.86l-4-6.95a3.74,3.74,0,0,1,0-3.72l4-7a3.71,3.71,0,0,1,3.21-1.86h8m0-2h-8a5.73,5.73,0,0,0-4.95,2.86l-4,7a5.73,5.73,0,0,0,0,5.72l4,6.95a5.73,5.73,0,0,0,4.95,2.86h8a5.72,5.72,0,0,0,5-2.86l4-6.95a5.73,5.73,0,0,0,0-5.72l-4-7a5.72,5.72,0,0,0-5-2.86Z"/><path class="cls-3" d="M29.14,58.24l4.51-7.81a1.68,1.68,0,0,1,1.47-.85h9"/><path class="cls-1" d="M110.35,53.14a4.71,4.71,0,0,1-4.08-2.36l-4-7a4.72,4.72,0,0,1,0-4.71l4-6.95a4.71,4.71,0,0,1,4.08-2.36h8a4.7,4.7,0,0,1,4.08,2.36l4,6.95a4.72,4.72,0,0,1,0,4.71l-4,7a4.7,4.7,0,0,1-4.08,2.36Z"/><path class="cls-2" d="M118.38,30.81a3.74,3.74,0,0,1,3.22,1.85l4,7a3.72,3.72,0,0,1,0,3.71l-4,7a3.72,3.72,0,0,1-3.22,1.86h-8a3.71,3.71,0,0,1-3.21-1.86l-4-7a3.72,3.72,0,0,1,0-3.71l4-7a3.72,3.72,0,0,1,3.21-1.85h8m0-2h-8a5.71,5.71,0,0,0-4.94,2.85l-4,7a5.71,5.71,0,0,0,0,5.71l4,7a5.7,5.7,0,0,0,4.94,2.86h8a5.72,5.72,0,0,0,5-2.86l4-7a5.66,5.66,0,0,0,0-5.71l-4-7a5.73,5.73,0,0,0-5-2.85Z"/><path class="cls-3" d="M104.7,41.67l4.51-7.81a1.7,1.7,0,0,1,1.47-.85h9"/><path class="cls-1" d="M136.91,38.46a4.72,4.72,0,0,1-4.08-2.35l-4-7a4.72,4.72,0,0,1,0-4.71l4-7a4.71,4.71,0,0,1,4.08-2.36h8A4.71,4.71,0,0,1,149,17.49l4,7a4.72,4.72,0,0,1,0,4.71l-4,7a4.72,4.72,0,0,1-4.08,2.35Z"/><path class="cls-2" d="M144.94,16.13A3.72,3.72,0,0,1,148.16,18l4,7a3.72,3.72,0,0,1,0,3.71l-4,7a3.74,3.74,0,0,1-3.22,1.85h-8a3.72,3.72,0,0,1-3.21-1.85l-4-7a3.72,3.72,0,0,1,0-3.71l4-7a3.71,3.71,0,0,1,3.21-1.86h8m0-2h-8A5.73,5.73,0,0,0,132,17l-4,7a5.71,5.71,0,0,0,0,5.71l4,7a5.72,5.72,0,0,0,4.95,2.85h8a5.71,5.71,0,0,0,4.95-2.85l4-7a5.71,5.71,0,0,0,0-5.71l-4-7a5.72,5.72,0,0,0-4.95-2.86Z"/><path class="cls-3" d="M131.26,27l4.51-7.81a1.68,1.68,0,0,1,1.47-.85h9"/><path class="cls-1" d="M110.35,24.33A4.72,4.72,0,0,1,106.27,22l-4-7a4.72,4.72,0,0,1,0-4.71l4-7A4.71,4.71,0,0,1,110.35,1h8a4.7,4.7,0,0,1,4.08,2.36l4,7a4.72,4.72,0,0,1,0,4.71l-4,7a4.71,4.71,0,0,1-4.08,2.35Z"/><path class="cls-2" d="M118.38,2a3.72,3.72,0,0,1,3.22,1.86l4,7a3.72,3.72,0,0,1,0,3.71l-4,7a3.74,3.74,0,0,1-3.22,1.85h-8a3.72,3.72,0,0,1-3.21-1.85l-4-7a3.72,3.72,0,0,1,0-3.71l4-7A3.71,3.71,0,0,1,110.35,2h8m0-2h-8a5.7,5.7,0,0,0-4.94,2.86l-4,7a5.71,5.71,0,0,0,0,5.71l4,7a5.71,5.71,0,0,0,4.94,2.85h8a5.73,5.73,0,0,0,5-2.85l4-7a5.66,5.66,0,0,0,0-5.71l-4-7a5.72,5.72,0,0,0-5-2.86Z"/><path class="cls-3" d="M104.7,12.87l4.51-7.82a1.69,1.69,0,0,1,1.47-.84h9"/><path class="cls-4" d="M162.12,80.77A4.71,4.71,0,0,1,158,78.41l-3.75-6.5a4.74,4.74,0,0,1,0-4.72l3.75-6.5a4.73,4.73,0,0,1,4.08-2.36h7.51a4.75,4.75,0,0,1,4.09,2.36l3.75,6.5a4.74,4.74,0,0,1,0,4.72l-3.75,6.5a4.73,4.73,0,0,1-4.09,2.36Z"/><path class="cls-2" d="M169.63,59.33a3.71,3.71,0,0,1,3.22,1.86l3.75,6.5a3.69,3.69,0,0,1,0,3.72l-3.75,6.5a3.71,3.71,0,0,1-3.22,1.86h-7.51a3.71,3.71,0,0,1-3.21-1.86l-3.76-6.5a3.74,3.74,0,0,1,0-3.72l3.76-6.5a3.71,3.71,0,0,1,3.21-1.86h7.51m0-2h-7.51a5.73,5.73,0,0,0-5,2.86l-3.75,6.5a5.73,5.73,0,0,0,0,5.72l3.75,6.5a5.73,5.73,0,0,0,5,2.86h7.51a5.72,5.72,0,0,0,5-2.86l3.76-6.5a5.73,5.73,0,0,0,0-5.72l-3.76-6.5a5.72,5.72,0,0,0-5-2.86Z"/><path class="cls-3" d="M156.55,69.74l4.35-7.53a1.63,1.63,0,0,1,1.42-.82H171"/><path class="cls-4" d="M110.61,111.87a4.72,4.72,0,0,1-4.08-2.35L102.78,103a4.72,4.72,0,0,1,0-4.71l3.75-6.51a4.72,4.72,0,0,1,4.08-2.35h7.51a4.74,4.74,0,0,1,4.09,2.35L126,98.3a4.72,4.72,0,0,1,0,4.71l-3.75,6.51a4.74,4.74,0,0,1-4.09,2.35Z"/><path class="cls-2" d="M118.12,90.44a3.72,3.72,0,0,1,3.22,1.85l3.75,6.51a3.68,3.68,0,0,1,0,3.71L121.34,109a3.72,3.72,0,0,1-3.22,1.85h-7.51A3.72,3.72,0,0,1,107.4,109l-3.76-6.51a3.72,3.72,0,0,1,0-3.71l3.76-6.51a3.72,3.72,0,0,1,3.21-1.85h7.51m0-2h-7.51a5.73,5.73,0,0,0-5,2.85l-3.75,6.51a5.71,5.71,0,0,0,0,5.71l3.75,6.51a5.73,5.73,0,0,0,5,2.85h7.51a5.73,5.73,0,0,0,4.95-2.85l3.76-6.51a5.71,5.71,0,0,0,0-5.71l-3.76-6.51a5.73,5.73,0,0,0-4.95-2.85Z"/><path class="cls-3" d="M105,100.85l4.35-7.54a1.65,1.65,0,0,1,1.42-.82h8.7"/><path class="cls-4" d="M35.05,96.24A4.72,4.72,0,0,1,31,93.89l-3.75-6.51a4.72,4.72,0,0,1,0-4.71L31,76.16a4.72,4.72,0,0,1,4.08-2.35h7.51a4.71,4.71,0,0,1,4.08,2.35l3.76,6.51a4.72,4.72,0,0,1,0,4.71l-3.76,6.51a4.71,4.71,0,0,1-4.08,2.35Z"/><path class="cls-2" d="M42.56,74.81a3.72,3.72,0,0,1,3.22,1.85l3.75,6.51a3.68,3.68,0,0,1,0,3.71l-3.75,6.51a3.72,3.72,0,0,1-3.22,1.85H35.05a3.72,3.72,0,0,1-3.21-1.85l-3.76-6.51a3.72,3.72,0,0,1,0-3.71l3.76-6.51a3.72,3.72,0,0,1,3.21-1.85h7.51m0-2H35.05a5.73,5.73,0,0,0-4.95,2.85l-3.75,6.51a5.71,5.71,0,0,0,0,5.71l3.75,6.51a5.73,5.73,0,0,0,4.95,2.85h7.51a5.73,5.73,0,0,0,4.95-2.85l3.76-6.51a5.71,5.71,0,0,0,0-5.71l-3.76-6.51a5.73,5.73,0,0,0-4.95-2.85Z"/><path class="cls-3" d="M29.48,85.22l4.35-7.54a1.65,1.65,0,0,1,1.42-.82H44"/><path class="cls-4" d="M85.84,98.32A4.71,4.71,0,0,1,81.76,96L78,89.46a4.72,4.72,0,0,1,0-4.71l3.76-6.51a4.73,4.73,0,0,1,4.08-2.36h7.51a4.72,4.72,0,0,1,4.08,2.36l3.76,6.51a4.72,4.72,0,0,1,0,4.71L97.43,96a4.7,4.7,0,0,1-4.08,2.36Z"/><path class="cls-2" d="M93.35,76.88a3.73,3.73,0,0,1,3.22,1.86l3.75,6.51a3.68,3.68,0,0,1,0,3.71l-3.75,6.5a3.71,3.71,0,0,1-3.22,1.86H85.84a3.71,3.71,0,0,1-3.21-1.86L78.87,89a3.72,3.72,0,0,1,0-3.71l3.76-6.51a3.73,3.73,0,0,1,3.21-1.86h7.51m0-2H85.84a5.72,5.72,0,0,0-5,2.86l-3.75,6.51a5.71,5.71,0,0,0,0,5.71l3.75,6.5a5.72,5.72,0,0,0,5,2.86h7.51a5.72,5.72,0,0,0,5-2.86l3.76-6.5a5.71,5.71,0,0,0,0-5.71L98.3,77.74a5.72,5.72,0,0,0-5-2.86Z"/><path class="cls-3" d="M80.27,87.3l4.35-7.54A1.63,1.63,0,0,1,86,78.94h8.7"/><path class="cls-1" d="M110.35,83.67a4.71,4.71,0,0,1-4.08-2.36l-4-7a4.72,4.72,0,0,1,0-4.71l4-7a4.72,4.72,0,0,1,4.08-2.35h8a4.71,4.71,0,0,1,4.08,2.35l4,7a4.72,4.72,0,0,1,0,4.71l-4,7a4.7,4.7,0,0,1-4.08,2.36Z"/><path class="cls-2" d="M118.38,61.34a3.74,3.74,0,0,1,3.22,1.85l4,7a3.72,3.72,0,0,1,0,3.71l-4,7a3.72,3.72,0,0,1-3.22,1.86h-8a3.71,3.71,0,0,1-3.21-1.86l-4-7a3.72,3.72,0,0,1,0-3.71l4-7a3.72,3.72,0,0,1,3.21-1.85h8m0-2h-8a5.71,5.71,0,0,0-4.94,2.85l-4,7a5.71,5.71,0,0,0,0,5.71l4,7a5.7,5.7,0,0,0,4.94,2.86h8a5.72,5.72,0,0,0,5-2.86l4-7a5.66,5.66,0,0,0,0-5.71l-4-7a5.73,5.73,0,0,0-5-2.85Z"/><path class="cls-3" d="M104.7,72.2l4.51-7.81a1.7,1.7,0,0,1,1.47-.85h9"/><path class="cls-1" d="M161.86,53.34A4.72,4.72,0,0,1,157.78,51l-4-6.95a4.72,4.72,0,0,1,0-4.71l4-7A4.72,4.72,0,0,1,161.86,30h8A4.71,4.71,0,0,1,174,32.37l4,7A4.72,4.72,0,0,1,178,44L174,51a4.71,4.71,0,0,1-4.08,2.36Z"/><path class="cls-2" d="M169.89,31a3.72,3.72,0,0,1,3.22,1.86l4,7a3.72,3.72,0,0,1,0,3.71l-4,6.95a3.72,3.72,0,0,1-3.22,1.86h-8a3.71,3.71,0,0,1-3.21-1.86l-4-6.95a3.72,3.72,0,0,1,0-3.71l4-7A3.71,3.71,0,0,1,161.86,31h8m0-2h-8a5.7,5.7,0,0,0-4.94,2.86l-4,7a5.71,5.71,0,0,0,0,5.71l4,6.95a5.7,5.7,0,0,0,4.94,2.86h8a5.72,5.72,0,0,0,5-2.86l4-6.95a5.66,5.66,0,0,0,0-5.71l-4-6.95a5.72,5.72,0,0,0-5-2.86Z"/><path class="cls-3" d="M156.21,41.88l4.51-7.82a1.69,1.69,0,0,1,1.47-.84h9"/><path class="cls-1" d="M136.57,67.74a4.71,4.71,0,0,1-4.08-2.36l-4-6.95a4.72,4.72,0,0,1,0-4.71l4-7a4.72,4.72,0,0,1,4.08-2.35h8a4.72,4.72,0,0,1,4.08,2.35l4,7a4.72,4.72,0,0,1,0,4.71l-4,6.95a4.71,4.71,0,0,1-4.08,2.36Z"/><path class="cls-2" d="M144.6,45.41a3.74,3.74,0,0,1,3.22,1.85l4,7a3.72,3.72,0,0,1,0,3.71l-4,6.95a3.72,3.72,0,0,1-3.22,1.86h-8a3.71,3.71,0,0,1-3.21-1.86l-4-6.95a3.72,3.72,0,0,1,0-3.71l4-7a3.72,3.72,0,0,1,3.21-1.85h8m0-2h-8a5.74,5.74,0,0,0-4.95,2.85l-4,7a5.71,5.71,0,0,0,0,5.71l4,6.95a5.73,5.73,0,0,0,4.95,2.86h8a5.72,5.72,0,0,0,5-2.86l4-6.95a5.71,5.71,0,0,0,0-5.71l-4-7a5.73,5.73,0,0,0-5-2.85Z"/><path class="cls-3" d="M130.92,56.27l4.51-7.81a1.7,1.7,0,0,1,1.46-.85h9"/><path class="cls-1" d="M34.79,42.27a4.72,4.72,0,0,1-4.08-2.35l-4-7a4.72,4.72,0,0,1,0-4.71l4-6.95a4.71,4.71,0,0,1,4.08-2.36h8A4.71,4.71,0,0,1,46.9,21.3l4,7a4.72,4.72,0,0,1,0,4.71l-4,7a4.72,4.72,0,0,1-4.08,2.35Z"/><path class="cls-2" d="M42.82,19.94A3.72,3.72,0,0,1,46,21.8l4,7a3.72,3.72,0,0,1,0,3.71l-4,7a3.74,3.74,0,0,1-3.22,1.85h-8a3.72,3.72,0,0,1-3.21-1.85l-4-7a3.72,3.72,0,0,1,0-3.71l4-6.95a3.71,3.71,0,0,1,3.21-1.86h8m0-2h-8a5.73,5.73,0,0,0-4.95,2.86l-4,7a5.71,5.71,0,0,0,0,5.71l4,7a5.72,5.72,0,0,0,4.95,2.85h8a5.71,5.71,0,0,0,5-2.85l4-7a5.71,5.71,0,0,0,0-5.71l-4-6.95a5.72,5.72,0,0,0-5-2.86Z"/><path class="cls-3" d="M29.14,30.81,33.65,23a1.68,1.68,0,0,1,1.47-.85h9"/></g></g></svg>