<svg xmlns="http://www.w3.org/2000/svg" viewBox="0 0 106.87 123.61"><defs><style>.cls-1,.cls-5{fill:none;}.cls-1,.cls-2,.cls-3,.cls-5{stroke:#000;stroke-linecap:round;stroke-linejoin:round;}.cls-1{stroke-width:2px;}.cls-2{fill:#fff;}.cls-3{fill:#fcd615;stroke-width:1.5px;}.cls-4{fill:#3a3637;}.cls-6{font-size:14.88px;font-family:MyriadPro-Regular, Myriad Pro;}</style></defs><g id="Layer_2" data-name="Layer 2"><g id="Layer_1-2" data-name="Layer 1"><line class="cls-1" x1="60.88" y1="54.13" x2="56.99" y2="61.44"/><polyline class="cls-2" points="106.37 35.15 79.26 4.72 79.26 0.5 32.21 7.91 32.21 12.31 0.5 37.6 3.94 39.43"/><polyline class="cls-3" points="56.99 122.86 103.62 98.69 103.62 41.54 56.99 61.44 56.99 122.86 7.51 104.66 7.51 50.92 56.99 61.44"/><polyline class="cls-2" points="0.5 37.6 3.94 39.43 58.93 57.79 103.62 38.93 106.37 35.15"/><polyline class="cls-2" points="56.99 61.44 103.62 41.54 106.37 35.15 61.22 53.88 33.21 16.41 3.94 39.43 7.51 50.92"/><polyline class="cls-2" points="36.17 7.91 36.17 12.61 65.54 52.1"/><ellipse class="cls-4" cx="30.85" cy="32.99" rx="3.13" ry="4.46"/><line class="cls-5" x1="56.99" y1="61.44" x2="61.22" y2="53.89"/><text class="cls-6" transform="translate(21.45 88.96)">667</text></g></g></svg>