<svg xmlns="http://www.w3.org/2000/svg" viewBox="0 0 99.44 115.01"><defs><style>.cls-1,.cls-5{fill:none;}.cls-1,.cls-2,.cls-3,.cls-5{stroke:#000;stroke-linecap:round;stroke-linejoin:round;}.cls-1{stroke-width:2px;}.cls-2{fill:#fff;}.cls-3{fill:#fcd615;stroke-width:1.5px;}.cls-4{fill:#3a3637;}.cls-6{font-size:14.57px;font-family:MyriadPro-Regular, Myriad Pro;}</style></defs><g id="Layer_2" data-name="Layer 2"><g id="Layer_1-2" data-name="Layer 1"><line class="cls-1" x1="56.64" y1="50.37" x2="53.02" y2="57.16"/><polyline class="cls-2" points="98.94 32.71 73.73 4.42 73.73 0.5 29.98 7.39 29.98 11.48 0.5 35 3.7 36.7"/><polyline class="cls-3" points="53.02 114.26 96.37 91.79 96.37 38.66 53.02 57.16 53.02 114.26 7.02 97.34 7.02 47.38 53.02 57.16"/><polyline class="cls-2" points="0.5 35 3.7 36.7 54.83 53.76 96.37 36.23 98.94 32.71"/><polyline class="cls-2" points="53.02 57.16 96.37 38.66 98.94 32.71 56.96 50.13 30.91 15.29 3.7 36.7 7.02 47.38"/><polyline class="cls-2" points="33.66 7.39 33.66 11.76 60.97 48.47"/><ellipse class="cls-4" cx="28.72" cy="30.71" rx="2.91" ry="4.15"/><line class="cls-5" x1="53.02" y1="57.16" x2="56.96" y2="50.14"/><text class="cls-6" transform="translate(20.5 81.63)">645</text></g></g></svg>