<svg xmlns="http://www.w3.org/2000/svg" viewBox="0 0 72.45 64.28"><defs><style>.cls-1{fill:#fcd615;}.cls-2{fill:#c93;}.cls-3{fill:none;stroke:#fff;stroke-linecap:round;stroke-miterlimit:10;stroke-width:2px;}.cls-4{font-size:10.49px;font-family:WeblySleekUISemibold, WeblySleek UI;}</style></defs><g id="Layer_2" data-name="Layer 2"><g id="Layer_1-2" data-name="Layer 1"><path class="cls-1" d="M21,63.28a4.71,4.71,0,0,1-4.08-2.36L1.63,34.5a4.74,4.74,0,0,1,0-4.72L16.89,3.36A4.71,4.71,0,0,1,21,1H51.48a4.73,4.73,0,0,1,4.09,2.36L70.82,29.78a4.74,4.74,0,0,1,0,4.72L55.57,60.92a4.73,4.73,0,0,1-4.09,2.36Z"/><path class="cls-2" d="M51.48,2A3.71,3.71,0,0,1,54.7,3.86L70,30.28A3.74,3.74,0,0,1,70,34L54.7,60.42a3.71,3.71,0,0,1-3.22,1.86H21a3.74,3.74,0,0,1-3.22-1.86L2.5,34a3.74,3.74,0,0,1,0-3.72L17.75,3.86A3.74,3.74,0,0,1,21,2H51.48m0-2H21A5.72,5.72,0,0,0,16,2.86L.77,29.28A5.68,5.68,0,0,0,.77,35L16,61.42A5.72,5.72,0,0,0,21,64.28H51.48a5.7,5.7,0,0,0,5-2.86L71.69,35a5.73,5.73,0,0,0,0-5.72L56.43,2.86a5.7,5.7,0,0,0-5-2.86Z"/><path class="cls-3" d="M9.7,29.65,21.14,9.82a4.29,4.29,0,0,1,3.72-2.15H47.75"/><text class="cls-4" transform="translate(31.2 34.89)">10</text></g></g></svg>