<svg xmlns="http://www.w3.org/2000/svg" viewBox="0 0 185.12 126.86"><defs><style>.cls-1{fill:#fff2bd;}.cls-2{fill:#c93;}.cls-3{fill:none;stroke:#fff;stroke-linecap:round;stroke-miterlimit:10;stroke-width:2px;}.cls-4{fill:#fcd615;}</style></defs><g id="Layer_2" data-name="Layer 2"><g id="Layer_1-2" data-name="Layer 1"><path class="cls-1" d="M65.75,95.8a4.71,4.71,0,0,1-4.08-2.36l-3.76-6.5a4.74,4.74,0,0,1,0-4.72l3.76-6.5a4.73,4.73,0,0,1,4.08-2.36h7.51a4.72,4.72,0,0,1,4.08,2.36l3.76,6.5a4.74,4.74,0,0,1,0,4.72l-3.76,6.5a4.7,4.7,0,0,1-4.08,2.36Z"/><path class="cls-2" d="M73.26,74.36a3.72,3.72,0,0,1,3.22,1.86l3.75,6.5a3.74,3.74,0,0,1,0,3.72l-3.75,6.5a3.72,3.72,0,0,1-3.22,1.86H65.75a3.71,3.71,0,0,1-3.21-1.86l-3.76-6.5a3.74,3.74,0,0,1,0-3.72l3.76-6.5a3.71,3.71,0,0,1,3.21-1.86h7.51m0-2H65.75a5.72,5.72,0,0,0-5,2.86l-3.75,6.5a5.73,5.73,0,0,0,0,5.72l3.75,6.5a5.72,5.72,0,0,0,5,2.86h7.51a5.72,5.72,0,0,0,4.95-2.86L82,87.44a5.73,5.73,0,0,0,0-5.72l-3.76-6.5a5.72,5.72,0,0,0-4.95-2.86Z"/><path class="cls-3" d="M60.18,84.77l4.35-7.53A1.63,1.63,0,0,1,66,76.42h8.7"/><path class="cls-4" d="M9.73,70.23a4.7,4.7,0,0,1-4.08-2.36l-4-7a4.72,4.72,0,0,1,0-4.71l4-7A4.71,4.71,0,0,1,9.73,46.9h8a4.74,4.74,0,0,1,4.08,2.35l4,7a4.72,4.72,0,0,1,0,4.71l-4,7a4.72,4.72,0,0,1-4.08,2.36Z"/><path class="cls-2" d="M17.76,47.9A3.72,3.72,0,0,1,21,49.75l4,7a3.72,3.72,0,0,1,0,3.71l-4,7a3.71,3.71,0,0,1-3.21,1.86h-8a3.72,3.72,0,0,1-3.22-1.86l-4-7a3.72,3.72,0,0,1,0-3.71l4-7A3.74,3.74,0,0,1,9.73,47.9h8m0-2h-8a5.73,5.73,0,0,0-4.95,2.85l-4,7a5.66,5.66,0,0,0,0,5.71l4,7a5.72,5.72,0,0,0,5,2.86h8a5.7,5.7,0,0,0,4.94-2.86l4-7a5.71,5.71,0,0,0,0-5.71l-4-7a5.71,5.71,0,0,0-4.94-2.85Z"/><path class="cls-3" d="M4.07,58.76,8.58,51a1.73,1.73,0,0,1,1.47-.85h9"/><path class="cls-4" d="M9.73,99.09a4.7,4.7,0,0,1-4.08-2.36l-4-7a4.72,4.72,0,0,1,0-4.71l4-7a4.71,4.71,0,0,1,4.08-2.35h8a4.74,4.74,0,0,1,4.08,2.35l4,7a4.72,4.72,0,0,1,0,4.71l-4,7a4.72,4.72,0,0,1-4.08,2.36Z"/><path class="cls-2" d="M17.76,76.76A3.72,3.72,0,0,1,21,78.61l4,7a3.72,3.72,0,0,1,0,3.71l-4,7a3.71,3.71,0,0,1-3.21,1.86h-8a3.72,3.72,0,0,1-3.22-1.86l-4-7a3.72,3.72,0,0,1,0-3.71l4-7a3.74,3.74,0,0,1,3.22-1.85h8m0-2h-8a5.73,5.73,0,0,0-4.95,2.85l-4,7a5.66,5.66,0,0,0,0,5.71l4,7a5.72,5.72,0,0,0,5,2.86h8a5.7,5.7,0,0,0,4.94-2.86l4-7a5.71,5.71,0,0,0,0-5.71l-4-7a5.71,5.71,0,0,0-4.94-2.85Z"/><path class="cls-3" d="M4.07,87.62l4.51-7.81A1.73,1.73,0,0,1,10.05,79h9"/><path class="cls-1" d="M168.14,64.55a4.72,4.72,0,0,1-4.08-2.35l-3.76-6.51a4.72,4.72,0,0,1,0-4.71l3.76-6.5a4.71,4.71,0,0,1,4.08-2.36h7.51a4.71,4.71,0,0,1,4.08,2.36l3.76,6.5a4.72,4.72,0,0,1,0,4.71l-3.76,6.51a4.72,4.72,0,0,1-4.08,2.35Z"/><path class="cls-2" d="M175.65,43.12A3.74,3.74,0,0,1,178.87,45l3.75,6.5a3.72,3.72,0,0,1,0,3.71l-3.75,6.51a3.75,3.75,0,0,1-3.22,1.85h-7.51a3.74,3.74,0,0,1-3.22-1.85l-3.75-6.51a3.72,3.72,0,0,1,0-3.71l3.75-6.5a3.72,3.72,0,0,1,3.22-1.86h7.51m0-2h-7.51A5.72,5.72,0,0,0,163.19,44l-3.75,6.5a5.66,5.66,0,0,0,0,5.71l3.75,6.51a5.71,5.71,0,0,0,4.95,2.85h7.51a5.71,5.71,0,0,0,4.95-2.85l3.75-6.51a5.71,5.71,0,0,0,0-5.71L180.6,44a5.72,5.72,0,0,0-4.95-2.86Z"/><path class="cls-3" d="M162.57,53.53,166.92,46a1.63,1.63,0,0,1,1.41-.81H177"/><path class="cls-1" d="M37.7,23.44a4.73,4.73,0,0,1-4.08-2.36l-3.75-6.5a4.74,4.74,0,0,1,0-4.72l3.75-6.5A4.71,4.71,0,0,1,37.7,1h7.51A4.73,4.73,0,0,1,49.3,3.36l3.75,6.5a4.74,4.74,0,0,1,0,4.72l-3.75,6.5a4.75,4.75,0,0,1-4.09,2.36Z"/><path class="cls-2" d="M45.21,2a3.71,3.71,0,0,1,3.22,1.86l3.76,6.5a3.74,3.74,0,0,1,0,3.72l-3.76,6.5a3.73,3.73,0,0,1-3.22,1.86H37.7a3.73,3.73,0,0,1-3.21-1.86l-3.76-6.5a3.74,3.74,0,0,1,0-3.72l3.76-6.5A3.71,3.71,0,0,1,37.7,2h7.51m0-2H37.7a5.7,5.7,0,0,0-4.94,2.86L29,9.36a5.73,5.73,0,0,0,0,5.72l3.76,6.5a5.7,5.7,0,0,0,4.94,2.86h7.51a5.7,5.7,0,0,0,4.95-2.86l3.76-6.5a5.73,5.73,0,0,0,0-5.72l-3.76-6.5A5.7,5.7,0,0,0,45.21,0Z"/><path class="cls-3" d="M32.13,12.41l4.35-7.53a1.63,1.63,0,0,1,1.42-.82h8.7"/><path class="cls-4" d="M37.44,84.25a4.75,4.75,0,0,1-4.08-2.36l-4-7a4.74,4.74,0,0,1,0-4.72l4-6.95a4.75,4.75,0,0,1,4.08-2.36h8a4.75,4.75,0,0,1,4.09,2.36l4,6.95a4.74,4.74,0,0,1,0,4.72l-4,7a4.75,4.75,0,0,1-4.09,2.36Z"/><path class="cls-2" d="M45.47,61.91a3.71,3.71,0,0,1,3.22,1.86l4,6.95a3.69,3.69,0,0,1,0,3.72l-4,7a3.73,3.73,0,0,1-3.22,1.86h-8a3.73,3.73,0,0,1-3.21-1.86l-4-7a3.74,3.74,0,0,1,0-3.72l4-6.95a3.71,3.71,0,0,1,3.21-1.86h8m0-2h-8a5.7,5.7,0,0,0-4.94,2.86l-4,6.95a5.73,5.73,0,0,0,0,5.72l4,7a5.7,5.7,0,0,0,4.94,2.86h8a5.72,5.72,0,0,0,5-2.86l4-7a5.73,5.73,0,0,0,0-5.72l-4-6.95a5.72,5.72,0,0,0-5-2.86Z"/><path class="cls-3" d="M31.79,72.78,36.3,65a1.68,1.68,0,0,1,1.47-.85h9"/><path class="cls-4" d="M9.73,41.25a4.7,4.7,0,0,1-4.08-2.36l-4-6.95a4.72,4.72,0,0,1,0-4.71l4-7a4.71,4.71,0,0,1,4.08-2.35h8a4.74,4.74,0,0,1,4.08,2.35l4,7a4.72,4.72,0,0,1,0,4.71l-4,7a4.72,4.72,0,0,1-4.08,2.36Z"/><path class="cls-2" d="M17.76,18.92A3.72,3.72,0,0,1,21,20.77l4,7a3.72,3.72,0,0,1,0,3.71l-4,7a3.71,3.71,0,0,1-3.21,1.86h-8a3.72,3.72,0,0,1-3.22-1.86l-4-6.95a3.72,3.72,0,0,1,0-3.71l4-7a3.74,3.74,0,0,1,3.22-1.85h8m0-2h-8a5.73,5.73,0,0,0-4.95,2.85l-4,7a5.66,5.66,0,0,0,0,5.71l4,7a5.72,5.72,0,0,0,5,2.86h8a5.7,5.7,0,0,0,4.94-2.86l4-7a5.71,5.71,0,0,0,0-5.71l-4-7a5.71,5.71,0,0,0-4.94-2.85Z"/><path class="cls-3" d="M4.07,29.78,8.58,22a1.73,1.73,0,0,1,1.47-.85h9"/><path class="cls-1" d="M117.71,93.27a4.73,4.73,0,0,1-4.09-2.36l-3.75-6.5a4.74,4.74,0,0,1,0-4.72l3.75-6.5a4.75,4.75,0,0,1,4.09-2.36h7.51a4.73,4.73,0,0,1,4.08,2.36l3.75,6.5a4.74,4.74,0,0,1,0,4.72l-3.75,6.5a4.71,4.71,0,0,1-4.08,2.36Z"/><path class="cls-2" d="M125.22,71.83a3.71,3.71,0,0,1,3.21,1.86l3.76,6.5a3.74,3.74,0,0,1,0,3.72l-3.76,6.5a3.71,3.71,0,0,1-3.21,1.86h-7.51a3.71,3.71,0,0,1-3.22-1.86l-3.76-6.5a3.74,3.74,0,0,1,0-3.72l3.76-6.5a3.71,3.71,0,0,1,3.22-1.86h7.51m0-2h-7.51a5.7,5.7,0,0,0-4.95,2.86L109,79.19a5.73,5.73,0,0,0,0,5.72l3.76,6.5a5.7,5.7,0,0,0,4.95,2.86h7.51a5.73,5.73,0,0,0,4.95-2.86l3.75-6.5a5.73,5.73,0,0,0,0-5.72l-3.75-6.5a5.73,5.73,0,0,0-4.95-2.86Z"/><path class="cls-3" d="M112.14,82.24l4.35-7.53a1.62,1.62,0,0,1,1.41-.82h8.7"/><path class="cls-1" d="M93.28,109.31A4.71,4.71,0,0,1,89.2,107l-3.76-6.5a4.74,4.74,0,0,1,0-4.72l3.76-6.5a4.73,4.73,0,0,1,4.08-2.36h7.51a4.73,4.73,0,0,1,4.08,2.36l3.76,6.5a4.74,4.74,0,0,1,0,4.72l-3.76,6.5a4.71,4.71,0,0,1-4.08,2.36Z"/><path class="cls-2" d="M100.79,87.87A3.72,3.72,0,0,1,104,89.73l3.75,6.5a3.74,3.74,0,0,1,0,3.72l-3.75,6.5a3.72,3.72,0,0,1-3.22,1.86H93.28a3.74,3.74,0,0,1-3.22-1.86L86.31,100a3.74,3.74,0,0,1,0-3.72l3.75-6.5a3.74,3.74,0,0,1,3.22-1.86h7.51m0-2H93.28a5.72,5.72,0,0,0-5,2.86l-3.75,6.5a5.73,5.73,0,0,0,0,5.72l3.75,6.5a5.72,5.72,0,0,0,5,2.86h7.51a5.72,5.72,0,0,0,4.95-2.86l3.76-6.5a5.73,5.73,0,0,0,0-5.72l-3.76-6.5a5.72,5.72,0,0,0-4.95-2.86Z"/><path class="cls-3" d="M87.71,98.28l4.35-7.53a1.62,1.62,0,0,1,1.41-.82h8.71"/><path class="cls-1" d="M65.75,65.65a4.72,4.72,0,0,1-4.08-2.35l-3.76-6.51a4.72,4.72,0,0,1,0-4.71l3.76-6.51a4.72,4.72,0,0,1,4.08-2.35h7.51a4.71,4.71,0,0,1,4.08,2.35l3.76,6.51a4.72,4.72,0,0,1,0,4.71L77.34,63.3a4.71,4.71,0,0,1-4.08,2.35Z"/><path class="cls-2" d="M73.26,44.22a3.74,3.74,0,0,1,3.22,1.85l3.75,6.51a3.72,3.72,0,0,1,0,3.71L76.48,62.8a3.74,3.74,0,0,1-3.22,1.85H65.75a3.72,3.72,0,0,1-3.21-1.85l-3.76-6.51a3.72,3.72,0,0,1,0-3.71l3.76-6.51a3.72,3.72,0,0,1,3.21-1.85h7.51m0-2H65.75a5.73,5.73,0,0,0-5,2.85l-3.75,6.51a5.71,5.71,0,0,0,0,5.71L60.8,63.8a5.73,5.73,0,0,0,5,2.85h7.51a5.73,5.73,0,0,0,4.95-2.85L82,57.29a5.71,5.71,0,0,0,0-5.71l-3.76-6.51a5.73,5.73,0,0,0-4.95-2.85Z"/><path class="cls-3" d="M60.18,54.63l4.35-7.54A1.65,1.65,0,0,1,66,46.27h8.7"/><path class="cls-1" d="M64.9,36.47a4.72,4.72,0,0,1-4.08-2.35l-3.75-6.51a4.72,4.72,0,0,1,0-4.71l3.75-6.51A4.72,4.72,0,0,1,64.9,14h7.51a4.74,4.74,0,0,1,4.09,2.35l3.75,6.51a4.72,4.72,0,0,1,0,4.71L76.5,34.12a4.74,4.74,0,0,1-4.09,2.35Z"/><path class="cls-2" d="M72.41,15a3.72,3.72,0,0,1,3.22,1.85l3.75,6.51a3.68,3.68,0,0,1,0,3.71l-3.75,6.51a3.72,3.72,0,0,1-3.22,1.85H64.9a3.72,3.72,0,0,1-3.21-1.85l-3.76-6.51a3.72,3.72,0,0,1,0-3.71l3.76-6.51A3.72,3.72,0,0,1,64.9,15h7.51m0-2H64.9a5.72,5.72,0,0,0-5,2.85L56.2,22.4a5.71,5.71,0,0,0,0,5.71L60,34.62a5.74,5.74,0,0,0,5,2.85h7.51a5.73,5.73,0,0,0,5-2.85l3.76-6.51a5.71,5.71,0,0,0,0-5.71l-3.76-6.51a5.71,5.71,0,0,0-5-2.85Z"/><path class="cls-3" d="M59.33,25.45l4.35-7.54a1.65,1.65,0,0,1,1.42-.82h8.7"/><path class="cls-4" d="M37.87,54.12a4.71,4.71,0,0,1-4.08-2.36l-4-6.95a4.72,4.72,0,0,1,0-4.71l4-7a4.72,4.72,0,0,1,4.08-2.35h8A4.72,4.72,0,0,1,50,33.14l4,7a4.72,4.72,0,0,1,0,4.71l-4,6.95a4.71,4.71,0,0,1-4.08,2.36Z"/><path class="cls-2" d="M45.9,31.79a3.72,3.72,0,0,1,3.21,1.85l4,7a3.72,3.72,0,0,1,0,3.71l-4,6.95a3.71,3.71,0,0,1-3.21,1.86h-8a3.72,3.72,0,0,1-3.22-1.86l-4-6.95a3.72,3.72,0,0,1,0-3.71l4-7a3.74,3.74,0,0,1,3.22-1.85h8m0-2h-8a5.71,5.71,0,0,0-4.95,2.85l-4,7a5.71,5.71,0,0,0,0,5.71l4,6.95a5.72,5.72,0,0,0,4.95,2.86h8a5.72,5.72,0,0,0,5-2.86l4-6.95a5.71,5.71,0,0,0,0-5.71l-4-7a5.71,5.71,0,0,0-5-2.85Z"/><path class="cls-3" d="M32.22,42.65l4.5-7.81A1.73,1.73,0,0,1,38.19,34h9"/><path class="cls-4" d="M37.44,113.64a4.74,4.74,0,0,1-4.08-2.35l-4-7a4.72,4.72,0,0,1,0-4.71l4-7a4.72,4.72,0,0,1,4.08-2.36h8a4.73,4.73,0,0,1,4.09,2.36l4,7a4.72,4.72,0,0,1,0,4.71l-4,7a4.74,4.74,0,0,1-4.09,2.35Z"/><path class="cls-2" d="M45.47,91.31a3.71,3.71,0,0,1,3.22,1.86l4,7a3.68,3.68,0,0,1,0,3.71l-4,7a3.72,3.72,0,0,1-3.22,1.85h-8a3.72,3.72,0,0,1-3.21-1.85l-4-7a3.72,3.72,0,0,1,0-3.71l4-7a3.71,3.71,0,0,1,3.21-1.86h8m0-2h-8a5.7,5.7,0,0,0-4.94,2.86l-4,7a5.71,5.71,0,0,0,0,5.71l4,7a5.71,5.71,0,0,0,4.94,2.85h8a5.73,5.73,0,0,0,5-2.85l4-7a5.71,5.71,0,0,0,0-5.71l-4-7a5.72,5.72,0,0,0-5-2.86Z"/><path class="cls-3" d="M31.79,102.18l4.51-7.82a1.69,1.69,0,0,1,1.47-.84h9"/><path class="cls-1" d="M92.86,50a4.75,4.75,0,0,1-4.09-2.36L85,41.16a4.72,4.72,0,0,1,0-4.71L88.77,30a4.73,4.73,0,0,1,4.09-2.36h7.51A4.71,4.71,0,0,1,104.45,30l3.75,6.5a4.72,4.72,0,0,1,0,4.71l-3.75,6.51A4.73,4.73,0,0,1,100.37,50Z"/><path class="cls-2" d="M100.37,28.59a3.71,3.71,0,0,1,3.21,1.86l3.76,6.5a3.72,3.72,0,0,1,0,3.71l-3.76,6.51A3.73,3.73,0,0,1,100.37,49H92.86a3.73,3.73,0,0,1-3.22-1.86l-3.75-6.51a3.68,3.68,0,0,1,0-3.71l3.75-6.5a3.71,3.71,0,0,1,3.22-1.86h7.51m0-2H92.86a5.72,5.72,0,0,0-5,2.86L84.15,36a5.71,5.71,0,0,0,0,5.71l3.76,6.51a5.72,5.72,0,0,0,5,2.86h7.51a5.72,5.72,0,0,0,4.95-2.86l3.75-6.51a5.71,5.71,0,0,0,0-5.71l-3.75-6.5a5.72,5.72,0,0,0-4.95-2.86Z"/><path class="cls-3" d="M87.29,39l4.35-7.54a1.63,1.63,0,0,1,1.41-.81h8.7"/><path class="cls-1" d="M92.86,79.67a4.75,4.75,0,0,1-4.09-2.36L85,70.81a4.74,4.74,0,0,1,0-4.72l3.75-6.5a4.73,4.73,0,0,1,4.09-2.36h7.51a4.71,4.71,0,0,1,4.08,2.36l3.75,6.5a4.74,4.74,0,0,1,0,4.72l-3.75,6.5a4.73,4.73,0,0,1-4.08,2.36Z"/><path class="cls-2" d="M100.37,58.23a3.71,3.71,0,0,1,3.21,1.86l3.76,6.5a3.74,3.74,0,0,1,0,3.72l-3.76,6.5a3.71,3.71,0,0,1-3.21,1.86H92.86a3.71,3.71,0,0,1-3.22-1.86l-3.75-6.5a3.69,3.69,0,0,1,0-3.72l3.75-6.5a3.71,3.71,0,0,1,3.22-1.86h7.51m0-2H92.86a5.72,5.72,0,0,0-5,2.86l-3.76,6.5a5.73,5.73,0,0,0,0,5.72l3.76,6.5a5.72,5.72,0,0,0,5,2.86h7.51a5.72,5.72,0,0,0,4.95-2.86l3.75-6.5a5.73,5.73,0,0,0,0-5.72l-3.75-6.5a5.72,5.72,0,0,0-4.95-2.86Z"/><path class="cls-3" d="M87.29,68.64l4.35-7.53a1.62,1.62,0,0,1,1.41-.82h8.7"/><path class="cls-1" d="M117.71,34.72a4.73,4.73,0,0,1-4.09-2.36l-3.75-6.5a4.74,4.74,0,0,1,0-4.72l3.75-6.5a4.75,4.75,0,0,1,4.09-2.36h7.51a4.73,4.73,0,0,1,4.08,2.36l3.75,6.5a4.74,4.74,0,0,1,0,4.72l-3.75,6.5a4.71,4.71,0,0,1-4.08,2.36Z"/><path class="cls-2" d="M125.22,13.28a3.71,3.71,0,0,1,3.21,1.86l3.76,6.5a3.74,3.74,0,0,1,0,3.72l-3.76,6.5a3.71,3.71,0,0,1-3.21,1.86h-7.51a3.71,3.71,0,0,1-3.22-1.86l-3.76-6.5a3.74,3.74,0,0,1,0-3.72l3.76-6.5a3.71,3.71,0,0,1,3.22-1.86h7.51m0-2h-7.51a5.7,5.7,0,0,0-4.95,2.86L109,20.64a5.73,5.73,0,0,0,0,5.72l3.76,6.5a5.7,5.7,0,0,0,4.95,2.86h7.51a5.73,5.73,0,0,0,4.95-2.86l3.75-6.5a5.73,5.73,0,0,0,0-5.72l-3.75-6.5a5.73,5.73,0,0,0-4.95-2.86Z"/><path class="cls-3" d="M112.14,23.69l4.35-7.53a1.62,1.62,0,0,1,1.41-.82h8.7"/><path class="cls-1" d="M117.71,64.36A4.73,4.73,0,0,1,113.62,62l-3.75-6.5a4.72,4.72,0,0,1,0-4.71l3.75-6.51a4.74,4.74,0,0,1,4.09-2.35h7.51a4.72,4.72,0,0,1,4.08,2.35l3.75,6.51a4.72,4.72,0,0,1,0,4.71L129.3,62a4.71,4.71,0,0,1-4.08,2.36Z"/><path class="cls-2" d="M125.22,42.93a3.72,3.72,0,0,1,3.21,1.85l3.76,6.51a3.72,3.72,0,0,1,0,3.71l-3.76,6.5a3.71,3.71,0,0,1-3.21,1.86h-7.51a3.71,3.71,0,0,1-3.22-1.86L110.73,55a3.72,3.72,0,0,1,0-3.71l3.76-6.51a3.72,3.72,0,0,1,3.22-1.85h7.51m0-2h-7.51a5.69,5.69,0,0,0-4.95,2.85L109,50.29A5.71,5.71,0,0,0,109,56l3.76,6.5a5.7,5.7,0,0,0,4.95,2.86h7.51a5.73,5.73,0,0,0,4.95-2.86l3.75-6.5a5.71,5.71,0,0,0,0-5.71l-3.75-6.51a5.72,5.72,0,0,0-4.95-2.85Z"/><path class="cls-3" d="M112.14,53.34l4.35-7.54A1.62,1.62,0,0,1,117.9,45h8.7"/><path class="cls-1" d="M142.86,49.8a4.72,4.72,0,0,1-4.08-2.35L135,40.94a4.72,4.72,0,0,1,0-4.71l3.75-6.51a4.72,4.72,0,0,1,4.08-2.35h7.51a4.74,4.74,0,0,1,4.09,2.35l3.75,6.51a4.72,4.72,0,0,1,0,4.71l-3.75,6.51a4.74,4.74,0,0,1-4.09,2.35Z"/><path class="cls-2" d="M150.37,28.37a3.72,3.72,0,0,1,3.22,1.85l3.75,6.51a3.68,3.68,0,0,1,0,3.71L153.59,47a3.72,3.72,0,0,1-3.22,1.85h-7.51A3.72,3.72,0,0,1,139.65,47l-3.76-6.51a3.72,3.72,0,0,1,0-3.71l3.76-6.51a3.72,3.72,0,0,1,3.21-1.85h7.51m0-2h-7.51a5.74,5.74,0,0,0-5,2.85l-3.75,6.51a5.71,5.71,0,0,0,0,5.71L137.91,48a5.74,5.74,0,0,0,5,2.85h7.51A5.73,5.73,0,0,0,155.32,48l3.76-6.51a5.71,5.71,0,0,0,0-5.71l-3.76-6.51a5.73,5.73,0,0,0-4.95-2.85Z"/><path class="cls-3" d="M137.29,38.78l4.35-7.54a1.64,1.64,0,0,1,1.42-.81h8.7"/><path class="cls-1" d="M142.86,79.45a4.73,4.73,0,0,1-4.08-2.36L135,70.58a4.72,4.72,0,0,1,0-4.71l3.75-6.5A4.71,4.71,0,0,1,142.86,57h7.51a4.73,4.73,0,0,1,4.09,2.36l3.75,6.5a4.72,4.72,0,0,1,0,4.71l-3.75,6.51a4.75,4.75,0,0,1-4.09,2.36Z"/><path class="cls-2" d="M150.37,58a3.71,3.71,0,0,1,3.22,1.86l3.75,6.5a3.68,3.68,0,0,1,0,3.71l-3.75,6.51a3.73,3.73,0,0,1-3.22,1.86h-7.51a3.73,3.73,0,0,1-3.21-1.86l-3.76-6.51a3.72,3.72,0,0,1,0-3.71l3.76-6.5A3.71,3.71,0,0,1,142.86,58h7.51m0-2h-7.51a5.73,5.73,0,0,0-5,2.86l-3.75,6.5a5.71,5.71,0,0,0,0,5.71l3.75,6.51a5.73,5.73,0,0,0,5,2.86h7.51a5.72,5.72,0,0,0,4.95-2.86l3.76-6.51a5.71,5.71,0,0,0,0-5.71l-3.76-6.5A5.72,5.72,0,0,0,150.37,56Z"/><path class="cls-3" d="M137.29,68.42l4.35-7.54a1.64,1.64,0,0,1,1.42-.81h8.7"/><path class="cls-1" d="M65.75,125.86a4.71,4.71,0,0,1-4.08-2.36L57.91,117a4.72,4.72,0,0,1,0-4.71l3.76-6.51a4.72,4.72,0,0,1,4.08-2.35h7.51a4.71,4.71,0,0,1,4.08,2.35l3.76,6.51a4.72,4.72,0,0,1,0,4.71l-3.76,6.5a4.7,4.7,0,0,1-4.08,2.36Z"/><path class="cls-2" d="M73.26,104.43a3.74,3.74,0,0,1,3.22,1.85l3.75,6.51a3.72,3.72,0,0,1,0,3.71L76.48,123a3.74,3.74,0,0,1-3.22,1.85H65.75A3.72,3.72,0,0,1,62.54,123l-3.76-6.51a3.72,3.72,0,0,1,0-3.71l3.76-6.51a3.72,3.72,0,0,1,3.21-1.85h7.51m0-2H65.75a5.71,5.71,0,0,0-5,2.85l-3.75,6.51a5.71,5.71,0,0,0,0,5.71L60.8,124a5.73,5.73,0,0,0,5,2.85h7.51A5.73,5.73,0,0,0,78.21,124L82,117.5a5.71,5.71,0,0,0,0-5.71l-3.76-6.51a5.71,5.71,0,0,0-4.95-2.85Z"/><path class="cls-3" d="M60.18,114.84l4.35-7.54a1.65,1.65,0,0,1,1.42-.82h8.7"/></g></g></svg>