<svg xmlns="http://www.w3.org/2000/svg" viewBox="0 0 101.56 117.47"><defs><style>.cls-1,.cls-5{fill:none;}.cls-1,.cls-2,.cls-3,.cls-5{stroke:#000;stroke-linecap:round;stroke-linejoin:round;}.cls-1{stroke-width:2px;}.cls-2{fill:#fff;}.cls-3{fill:#fcd615;stroke-width:1.5px;}.cls-4{fill:#3a3637;}.cls-6{font-size:14.88px;font-family:MyriadPro-Regular, Myriad Pro;}</style></defs><g id="Layer_2" data-name="Layer 2"><g id="Layer_1-2" data-name="Layer 1"><line class="cls-1" x1="57.85" y1="51.44" x2="54.15" y2="58.38"/><polyline class="cls-2" points="101.06 33.41 75.31 4.5 75.31 0.5 30.62 7.54 30.62 11.71 0.5 35.74 3.77 37.48"/><polyline class="cls-3" points="54.15 116.72 98.44 93.76 98.44 39.48 54.15 58.38 54.15 116.72 7.16 99.43 7.16 48.39 54.15 58.38"/><polyline class="cls-2" points="0.5 35.74 3.77 37.48 56 54.91 98.44 37 101.06 33.41"/><polyline class="cls-2" points="54.15 58.38 98.44 39.48 101.06 33.41 58.17 51.2 31.56 15.61 3.77 37.48 7.16 48.39"/><polyline class="cls-2" points="34.38 7.54 34.38 12 62.27 49.51"/><ellipse class="cls-4" cx="29.33" cy="31.36" rx="2.97" ry="4.24"/><line class="cls-5" x1="54.15" y1="58.38" x2="58.18" y2="51.21"/><text class="cls-6" transform="translate(20.93 83.38)">654</text></g></g></svg>