<svg xmlns="http://www.w3.org/2000/svg" viewBox="0 0 198.55 111.16"><defs><style>.cls-1{fill:#fcd615;}.cls-2{fill:#c93;}.cls-3{fill:none;stroke:#fff;stroke-linecap:round;stroke-miterlimit:10;stroke-width:2px;}.cls-4{font-size:8.39px;}.cls-4,.cls-7{font-family:WeblySleekUISemibold, WeblySleek UI;}.cls-5{letter-spacing:-0.01em;}.cls-6{letter-spacing:-0.01em;}.cls-7{font-size:10.49px;}</style></defs><g id="Layer_2" data-name="Layer 2"><g id="Layer_1-2" data-name="Layer 1"><path class="cls-1" d="M100.68,89.26A4.71,4.71,0,0,1,96.6,86.9L81.34,60.48a4.72,4.72,0,0,1,0-4.71L96.6,29.34A4.73,4.73,0,0,1,100.68,27H131.2a4.75,4.75,0,0,1,4.08,2.36l15.25,26.43a4.72,4.72,0,0,1,0,4.71L135.28,86.9a4.72,4.72,0,0,1-4.08,2.36Z"/><path class="cls-2" d="M131.2,28a3.71,3.71,0,0,1,3.21,1.86l15.26,26.43a3.72,3.72,0,0,1,0,3.71L134.41,86.4a3.71,3.71,0,0,1-3.21,1.86H100.68a3.71,3.71,0,0,1-3.21-1.86L82.21,60a3.72,3.72,0,0,1,0-3.71L97.47,29.84A3.71,3.71,0,0,1,100.68,28H131.2m0-2H100.68a5.72,5.72,0,0,0-5,2.86L80.48,55.27a5.71,5.71,0,0,0,0,5.71L95.73,87.4a5.72,5.72,0,0,0,5,2.86H131.2a5.7,5.7,0,0,0,4.94-2.86L151.4,61a5.71,5.71,0,0,0,0-5.71L136.14,28.84A5.7,5.7,0,0,0,131.2,26Z"/><path class="cls-3" d="M89.41,55.63l11.44-19.82a4.3,4.3,0,0,1,3.72-2.15h22.89"/><text class="cls-4" transform="translate(6.69 33.66)">up <tspan class="cls-5" x="12.26" y="0">t</tspan><tspan x="15.25" y="0">o 5</tspan></text><text class="cls-4" transform="translate(53.45 55.43)">5-10</text><text class="cls-4" transform="translate(163.97 7.13)">10-15</text><text class="cls-4" transform="translate(154.86 70.01)">15-20</text><text class="cls-4" transform="translate(102.02 19.34)">o<tspan class="cls-6" x="5.01" y="0">v</tspan><tspan x="9.2" y="0">er 20</tspan></text><text class="cls-7" transform="translate(110.92 60.88)">10</text><path class="cls-1" d="M157.22,110.16a4.72,4.72,0,0,1-4.08-2.36l-7.08-12.26a4.74,4.74,0,0,1,0-4.72l7.08-12.27a4.74,4.74,0,0,1,4.08-2.35h14.17a4.72,4.72,0,0,1,4.08,2.35l7.09,12.27a4.74,4.74,0,0,1,0,4.72l-7.09,12.26a4.71,4.71,0,0,1-4.08,2.36Z"/><path class="cls-2" d="M171.39,77.2h0a3.74,3.74,0,0,1,3.22,1.85l7.08,12.27a3.74,3.74,0,0,1,0,3.72l-7.08,12.26a3.72,3.72,0,0,1-3.22,1.86H157.22A3.71,3.71,0,0,1,154,107.3L146.93,95a3.69,3.69,0,0,1,0-3.72L154,79.05a3.72,3.72,0,0,1,3.21-1.85h14.17m0-2H157.22a5.71,5.71,0,0,0-4.94,2.85l-7.09,12.27a5.73,5.73,0,0,0,0,5.72l7.09,12.26a5.7,5.7,0,0,0,4.94,2.86h14.17a5.72,5.72,0,0,0,5-2.86L183.42,96a5.73,5.73,0,0,0,0-5.72l-7.08-12.27a5.73,5.73,0,0,0-5-2.85Z"/><path class="cls-3" d="M150.58,93.46,157,82.37a2.42,2.42,0,0,1,2.09-1.2h12.8"/><text class="cls-7" transform="translate(161.4 95.93)">2</text><path class="cls-1" d="M166.49,52.32A4.71,4.71,0,0,1,162.41,50l-8.79-15.21a4.77,4.77,0,0,1,0-4.71l8.79-15.21a4.71,4.71,0,0,1,4.08-2.36h17.56a4.73,4.73,0,0,1,4.09,2.36L196.92,30a4.72,4.72,0,0,1,0,4.71L188.14,50a4.73,4.73,0,0,1-4.09,2.36Z"/><path class="cls-2" d="M184.05,13.47a3.71,3.71,0,0,1,3.22,1.86l8.78,15.21a3.72,3.72,0,0,1,0,3.71l-8.78,15.21a3.71,3.71,0,0,1-3.22,1.86H166.49a3.72,3.72,0,0,1-3.22-1.86l-8.78-15.21a3.72,3.72,0,0,1,0-3.71l8.78-15.21a3.72,3.72,0,0,1,3.22-1.86h17.56m0-2H166.49a5.72,5.72,0,0,0-5,2.86l-8.78,15.21a5.71,5.71,0,0,0,0,5.71l8.78,15.21a5.72,5.72,0,0,0,5,2.86h17.56A5.72,5.72,0,0,0,189,50.46l8.78-15.21a5.71,5.71,0,0,0,0-5.71L189,14.33a5.72,5.72,0,0,0-4.95-2.86Z"/><path class="cls-3" d="M159.3,32.72l7.45-12.9a2.78,2.78,0,0,1,2.42-1.4h14.9"/><text class="cls-7" transform="translate(173.02 35.15)">3</text><path class="cls-1" d="M51.83,104.85a4.71,4.71,0,0,1-4.08-2.36L39,87.28a4.72,4.72,0,0,1,0-4.71l8.78-15.21A4.71,4.71,0,0,1,51.83,65H69.4a4.72,4.72,0,0,1,4.08,2.36l8.78,15.21a4.72,4.72,0,0,1,0,4.71l-8.78,15.21a4.72,4.72,0,0,1-4.08,2.36Z"/><path class="cls-2" d="M69.4,66a3.71,3.71,0,0,1,3.21,1.86l8.78,15.21a3.68,3.68,0,0,1,0,3.71L72.61,102a3.71,3.71,0,0,1-3.21,1.86H51.83A3.71,3.71,0,0,1,48.62,102L39.83,86.78a3.72,3.72,0,0,1,0-3.71l8.79-15.21A3.71,3.71,0,0,1,51.83,66H69.4m0-2H51.83a5.72,5.72,0,0,0-4.95,2.86L38.1,82.07a5.71,5.71,0,0,0,0,5.71L46.88,103a5.72,5.72,0,0,0,4.95,2.86H69.4A5.7,5.7,0,0,0,74.34,103l8.79-15.21a5.71,5.71,0,0,0,0-5.71L74.34,66.86A5.7,5.7,0,0,0,69.4,64Z"/><path class="cls-3" d="M44.64,85.26l7.45-12.91A2.8,2.8,0,0,1,54.51,71H69.42"/><text class="cls-7" transform="translate(58.36 87.68)">3</text><path class="cls-1" d="M12.8,75.28a4.73,4.73,0,0,1-4.09-2.36L1.63,60.65a4.72,4.72,0,0,1,0-4.71L8.71,43.67a4.74,4.74,0,0,1,4.09-2.35H27a4.74,4.74,0,0,1,4.09,2.35l7.08,12.27a4.72,4.72,0,0,1,0,4.71L31.05,72.92A4.73,4.73,0,0,1,27,75.28Z"/><path class="cls-2" d="M27,42.32a3.72,3.72,0,0,1,3.22,1.85l7.08,12.27a3.68,3.68,0,0,1,0,3.71L30.18,72.42A3.71,3.71,0,0,1,27,74.28H12.8a3.71,3.71,0,0,1-3.22-1.86L2.5,60.15a3.72,3.72,0,0,1,0-3.71L9.58,44.17a3.72,3.72,0,0,1,3.22-1.85H27m0-2H12.8a5.71,5.71,0,0,0-5,2.85L.77,55.44a5.66,5.66,0,0,0,0,5.71L7.85,73.42a5.72,5.72,0,0,0,5,2.86H27a5.7,5.7,0,0,0,4.95-2.86L39,61.15a5.71,5.71,0,0,0,0-5.71L31.91,43.17A5.69,5.69,0,0,0,27,40.32Z"/><path class="cls-3" d="M6.16,58.58l6.4-11.09a2.41,2.41,0,0,1,2.08-1.2H27.45"/><text class="cls-7" transform="translate(16.97 61.05)">2</text></g></g></svg>