<svg xmlns="http://www.w3.org/2000/svg" viewBox="0 0 135.37 156.54"><defs><style>.cls-1,.cls-5{fill:none;}.cls-1,.cls-2,.cls-3,.cls-5{stroke:#000;stroke-linecap:round;stroke-linejoin:round;}.cls-1{stroke-width:2px;}.cls-2{fill:#fff;}.cls-3{fill:#fcd615;stroke-width:1.5px;}.cls-4{fill:#3a3637;}.cls-6{font-size:14.57px;font-family:MyriadPro-Regular, Myriad Pro;}</style></defs><g id="Layer_2" data-name="Layer 2"><g id="Layer_1-2" data-name="Layer 1"><line class="cls-1" x1="77.13" y1="68.57" x2="72.19" y2="77.85"/><polyline class="cls-2" points="134.87 44.47 100.46 5.85 100.46 0.5 40.74 9.91 40.74 15.48 0.5 47.59 4.86 49.91"/><polyline class="cls-3" points="72.19 155.79 131.37 125.12 131.37 52.59 72.19 77.84 72.19 155.79 9.4 132.69 9.4 64.49 72.19 77.84"/><polyline class="cls-2" points="0.5 47.59 4.86 49.91 74.66 73.21 131.37 49.27 134.87 44.47"/><polyline class="cls-2" points="72.19 77.84 131.37 52.59 134.87 44.47 77.57 68.25 42.01 20.69 4.86 49.91 9.4 64.49"/><polyline class="cls-2" points="45.77 9.91 45.77 15.87 83.04 65.98"/><ellipse class="cls-4" cx="39.02" cy="41.73" rx="3.97" ry="5.66"/><line class="cls-5" x1="72.19" y1="77.85" x2="77.57" y2="68.25"/><text class="cls-6" transform="translate(30 115.57)">794</text></g></g></svg>