<svg xmlns="http://www.w3.org/2000/svg" viewBox="0 0 46.56 41.85"><defs><style>.cls-1{fill:#fcd615;}.cls-2{fill:#c93;}.cls-3{fill:none;stroke:#fff;stroke-linecap:round;stroke-miterlimit:10;stroke-width:2px;}.cls-4{font-size:10.49px;font-family:WeblySleekUISemibold, WeblySleek UI;}</style></defs><g id="Layer_2" data-name="Layer 2"><g id="Layer_1-2" data-name="Layer 1"><path class="cls-1" d="M14.5,40.85a4.73,4.73,0,0,1-4.09-2.36L1.63,23.28a4.72,4.72,0,0,1,0-4.71L10.41,3.36A4.73,4.73,0,0,1,14.5,1H32.06a4.71,4.71,0,0,1,4.08,2.36l8.78,15.21a4.72,4.72,0,0,1,0,4.71L36.14,38.49a4.71,4.71,0,0,1-4.08,2.36Z"/><path class="cls-2" d="M32.06,2a3.74,3.74,0,0,1,3.22,1.86l8.78,15.21a3.72,3.72,0,0,1,0,3.71L35.28,38a3.74,3.74,0,0,1-3.22,1.86H14.5A3.71,3.71,0,0,1,11.28,38L2.5,22.78a3.72,3.72,0,0,1,0-3.71L11.28,3.86A3.71,3.71,0,0,1,14.5,2H32.06m0-2H14.5A5.7,5.7,0,0,0,9.55,2.86L.77,18.07a5.66,5.66,0,0,0,0,5.71L9.55,39a5.7,5.7,0,0,0,4.95,2.86H32.06A5.72,5.72,0,0,0,37,39l8.78-15.21a5.71,5.71,0,0,0,0-5.71L37,2.86A5.72,5.72,0,0,0,32.06,0Z"/><path class="cls-3" d="M7.31,21.26,14.76,8.35A2.78,2.78,0,0,1,17.18,7h14.9"/><text class="cls-4" transform="translate(21.03 23.68)">3</text></g></g></svg>