<svg xmlns="http://www.w3.org/2000/svg" viewBox="0 0 39.76 35.97"><defs><style>.cls-1{fill:#fcd615;}.cls-2{fill:#c93;}.cls-3{fill:none;stroke:#fff;stroke-linecap:round;stroke-miterlimit:10;stroke-width:2px;}.cls-4{font-size:10.49px;font-family:WeblySleekUISemibold, WeblySleek UI;}</style></defs><g id="Layer_2" data-name="Layer 2"><g id="Layer_1-2" data-name="Layer 1"><path class="cls-1" d="M12.8,35a4.72,4.72,0,0,1-4.08-2.36L1.63,20.34a4.72,4.72,0,0,1,0-4.71L8.72,3.36A4.7,4.7,0,0,1,12.8,1H27a4.73,4.73,0,0,1,4.09,2.36l7.08,12.27a4.72,4.72,0,0,1,0,4.71L31.05,32.61A4.75,4.75,0,0,1,27,35Z"/><path class="cls-2" d="M27,2a3.71,3.71,0,0,1,3.22,1.86l7.08,12.27a3.7,3.7,0,0,1,0,3.71L30.18,32.11A3.73,3.73,0,0,1,27,34H12.8a3.73,3.73,0,0,1-3.22-1.86L2.5,19.84a3.72,3.72,0,0,1,0-3.71L9.58,3.86A3.71,3.71,0,0,1,12.8,2H27m0-2H12.8a5.72,5.72,0,0,0-5,2.86L.77,15.13a5.66,5.66,0,0,0,0,5.71L7.85,33.11a5.72,5.72,0,0,0,5,2.86H27a5.7,5.7,0,0,0,4.95-2.86L39,20.84a5.71,5.71,0,0,0,0-5.71L31.91,2.86A5.7,5.7,0,0,0,27,0Z"/><path class="cls-3" d="M6.16,18.27l6.4-11.09A2.39,2.39,0,0,1,14.64,6H27.45"/><text class="cls-4" transform="translate(16.97 20.74)">2</text></g></g></svg>