<svg xmlns="http://www.w3.org/2000/svg" viewBox="0 0 147.22 129.48"><defs><style>.cls-1{fill:#ccc;}.cls-2,.cls-5,.cls-6{fill:none;stroke-miterlimit:10;}.cls-2,.cls-3,.cls-4{stroke:#000;}.cls-2,.cls-3,.cls-4,.cls-5,.cls-6{stroke-linecap:round;}.cls-2{stroke-width:0.75px;}.cls-3,.cls-4{fill:#fcd615;stroke-linejoin:round;}.cls-3{opacity:0.85;}.cls-4{opacity:0.78;}.cls-5,.cls-6{stroke:#fff;}.cls-5{stroke-width:2px;}</style></defs><g id="Layer_2" data-name="Layer 2"><g id="Layer_1-2" data-name="Layer 1"><path class="cls-1" d="M110,79.06c-5.45,0-11.24-.3-16.7-2.47-4.65-1.84-8.39-4.9-12-7.85a76.6,76.6,0,0,0-6.64-5,62.37,62.37,0,0,1-8.06-6.66c-1-.94-2-1.88-3.05-2.77l-2.25-2c-7.26-6.38-14.77-13-23.13-18.22-3.85-2.41-8-4.62-12.06-6.76-2.42-1.28-4.92-2.61-7.34-4A94.83,94.83,0,0,1,9,17.2l-.9-.65c-2.56-1.85-5.75-4.14-7-7.18a6.08,6.08,0,0,1,.28-4.85A6.53,6.53,0,0,1,5.23,1.06,7.25,7.25,0,0,1,7.4.75a16.8,16.8,0,0,1,6.49,1.72C19.74,5.05,25,9.11,29.84,13l.87.71a176.36,176.36,0,0,1,20.61,20c1.66,1.87,3.28,3.79,4.85,5.65C60.87,45,65.3,50.23,70.9,54.71c3.6,2.85,6.43,4.29,9.77,5A16.37,16.37,0,0,0,84,60a42.43,42.43,0,0,0,7.61-1c2.16-.39,4.39-.8,6.75-1,3-.25,6.22-.37,9.73-.37s7.29.12,12.23.38c1.66.09,3.33.16,5,.24,5.31.23,10.8.47,16.12,1.21,1.63.23,3.6.68,4.36,2.12a3.61,3.61,0,0,1-.28,3.36c-1.46,2.89-4.24,4.88-6.69,6.63l-.38.27a34.71,34.71,0,0,1-9.9,4.84A55.26,55.26,0,0,1,112.74,79Z"/><path d="M7.4,1.5a16.13,16.13,0,0,1,6.19,1.66c5.77,2.54,10.9,6.52,15.77,10.47l.88.71a175.86,175.86,0,0,1,20.52,20c6.42,7.24,12.06,14.91,19.67,21a23.21,23.21,0,0,0,10.09,5.11,16.56,16.56,0,0,0,3.43.34c4.55,0,9.19-1.52,14.42-1.94,3.22-.26,6.44-.37,9.67-.37,4.06,0,8.13.17,12.19.38,7,.37,14.12.48,21.06,1.45,2.47.34,5.14,1.15,3.51,4.39-1.45,2.87-4.3,4.81-6.84,6.63A33.75,33.75,0,0,1,128.28,76a54.54,54.54,0,0,1-15.55,2.27l-2.76,0c-5.58,0-11.19-.34-16.43-2.42C86.32,73,81.39,67.21,75,63.08c-4-2.58-7.45-6.24-11-9.37-8.18-7.17-16.22-14.46-25.47-20.26-6.2-3.89-13-7.13-19.43-10.75a95.61,95.61,0,0,1-9.65-6.1c-2.69-2-6.34-4.32-7.62-7.51C.7,6.3,2.62,2.64,5.45,1.78a6.43,6.43,0,0,1,2-.28M7.4,0A8.42,8.42,0,0,0,5,.34,7.19,7.19,0,0,0,.74,4.19,6.8,6.8,0,0,0,.43,9.65c1.31,3.24,4.59,5.6,7.22,7.5l.91.66a97.44,97.44,0,0,0,9.8,6.2c2.43,1.36,4.94,2.69,7.37,4,4,2.13,8.17,4.33,12,6.73,8.3,5.2,15.79,11.79,23,18.15l2.25,2c1,.88,2,1.84,3,2.76a62,62,0,0,0,8.16,6.74,74.55,74.55,0,0,1,6.57,5c3.67,3,7.46,6.08,12.21,8,5.58,2.21,11.46,2.52,17,2.52l2.78,0a56.45,56.45,0,0,0,16-2.33,35.48,35.48,0,0,0,10.1-4.95l.39-.27c2.52-1.81,5.38-3.85,6.92-6.9a4.27,4.27,0,0,0,.27-4c-.91-1.75-3.11-2.27-4.92-2.52-5.36-.75-10.87-1-16.19-1.22-1.67-.08-3.34-.15-5-.24-5-.26-8.74-.38-12.27-.38s-6.73.12-9.79.37a68.5,68.5,0,0,0-6.82,1,42.38,42.38,0,0,1-7.48.94,14.9,14.9,0,0,1-3.13-.31c-3.22-.65-6-2-9.46-4.82C65.83,49.7,61.42,44.48,56.75,39c-1.58-1.86-3.21-3.79-4.87-5.66a175.55,175.55,0,0,0-20.7-20.14l-.4-.32-.47-.39c-4.9-4-10.18-8.06-16.12-10.67A17.3,17.3,0,0,0,7.4,0Z"/><path class="cls-2" d="M142.72,63.41a86.55,86.55,0,0,1-23.42,4.81c-7.71.43-15.43.14-23.13-.2C89,67.69,81.72,66.74,75,64.16"/><path class="cls-2" d="M5.51,5.48a12.12,12.12,0,0,0,.85,2.39,20.84,20.84,0,0,0,8.33,8.52,116.86,116.86,0,0,0,11.46,6,74.43,74.43,0,0,1,12,7.24c5.57,3.92,11.44,8,16,13.08"/><path class="cls-3" d="M145.75,60.69c-3.65-5.56-6.74-11.23-12.21-15.37-17.32-13.11-43.88-8.9-54.63,10.3-3.67,6.54,1.17,14,5.25,19.06,5,6.22,12.15,11.71,15.19,19.31,2.23,5.59.31,11.19,1.83,17,.79,3,2.57,6.07,6.14,6,5.07-.11,6.29-6.19,6.76-10.09.57-4.69.34-9.53,2.59-13.87,1.85-3.57,5.4-6.11,8.56-8.55,7-5.42,14.7-9.27,19.92-16.63a6.89,6.89,0,0,0,1.53-4.73A5.63,5.63,0,0,0,145.75,60.69Z"/><path class="cls-4" d="M102.56,124.13a4.35,4.35,0,0,1,7.7-1.54,4.17,4.17,0,0,1-.34,5.13,4.41,4.41,0,0,1-6,.17A4.26,4.26,0,0,1,102.56,124.13Z"/><path class="cls-5" d="M111.22,43.25a28.22,28.22,0,0,1,24.45,9.92"/><path class="cls-6" d="M116.73,86.43c-4.93,3.6-5.27,9.27-5.62,14.58s-.44,12.5-5.41,11.73"/></g></g></svg>