<svg xmlns="http://www.w3.org/2000/svg" viewBox="0 0 147.03 96.35"><defs><style>.cls-1{fill:#ccc;}.cls-2,.cls-4{fill:none;}.cls-2,.cls-3{stroke:#000;}.cls-2,.cls-3,.cls-4{stroke-linecap:round;}.cls-2{stroke-miterlimit:10;stroke-width:0.75px;}.cls-3{fill:#fcd615;opacity:0.85;}.cls-3,.cls-4{stroke-linejoin:round;}.cls-4{stroke:#fff;}</style></defs><g id="Layer_2" data-name="Layer 2"><g id="Layer_1-2" data-name="Layer 1"><path class="cls-1" d="M109.83,79c-5.44,0-11.22-.3-16.68-2.46-4.64-1.84-8.38-4.9-12-7.85a75.33,75.33,0,0,0-6.63-5,61.48,61.48,0,0,1-8-6.66c-1-.94-2-1.87-3-2.76l-2.24-2c-7.26-6.37-14.76-13-23.1-18.2-3.85-2.41-8-4.61-12-6.75-2.42-1.28-4.93-2.6-7.34-4A95.21,95.21,0,0,1,9,17.18l-.91-.66c-2.55-1.84-5.73-4.13-6.95-7.16a6.08,6.08,0,0,1,.28-4.85A6.52,6.52,0,0,1,5.22,1.06,7.25,7.25,0,0,1,7.39.75a16.8,16.8,0,0,1,6.49,1.72C19.72,5,25,9.1,29.8,13l.87.71a175.87,175.87,0,0,1,20.59,20c1.65,1.87,3.28,3.79,4.85,5.64,4.69,5.54,9.11,10.77,14.7,15.24,3.59,2.85,6.42,4.29,9.76,5a15.5,15.5,0,0,0,3.27.32A43.32,43.32,0,0,0,91.45,59a65.14,65.14,0,0,1,6.73-1c3-.25,6.22-.37,9.72-.37s7.28.12,12.22.38c1.65.09,3.32.16,5,.23,5.3.24,10.79.48,16.1,1.22,1.63.23,3.6.67,4.36,2.12a3.59,3.59,0,0,1-.29,3.35c-1.45,2.88-4.22,4.87-6.67,6.62l-.39.28a34.56,34.56,0,0,1-9.88,4.82,55.11,55.11,0,0,1-15.74,2.3Z"/><path d="M7.39,1.5a16.08,16.08,0,0,1,6.18,1.66c5.77,2.53,10.89,6.51,15.76,10.45l.87.71A174.73,174.73,0,0,1,50.7,34.26c6.41,7.23,12,14.89,19.64,21a23.34,23.34,0,0,0,10.08,5.11,17.26,17.26,0,0,0,3.43.33c4.54,0,9.18-1.52,14.4-1.94,3.21-.26,6.43-.36,9.65-.36,4.06,0,8.12.16,12.17.38,7,.37,14.11.48,21,1.44,2.47.35,5.13,1.16,3.5,4.39-1.44,2.86-4.29,4.81-6.83,6.63a33.87,33.87,0,0,1-9.66,4.72,54.74,54.74,0,0,1-15.53,2.26l-2.76,0c-5.57,0-11.17-.33-16.41-2.41C86.21,72.94,81.29,67.13,74.93,63c-4-2.58-7.44-6.23-11-9.35C55.75,46.49,47.73,39.2,38.49,33.41c-6.19-3.88-13-7.12-19.42-10.74a94.59,94.59,0,0,1-9.63-6.09c-2.69-2-6.33-4.32-7.62-7.5a5.87,5.87,0,0,1,3.62-7.3A6.43,6.43,0,0,1,7.39,1.5m0-1.5A8.47,8.47,0,0,0,5,.34,7.18,7.18,0,0,0,.74,4.19,6.77,6.77,0,0,0,.43,9.64c1.31,3.24,4.58,5.6,7.22,7.49l.9.66A95.52,95.52,0,0,0,18.34,24c2.42,1.36,4.93,2.69,7.36,4,4,2.12,8.16,4.32,12,6.72,8.29,5.2,15.77,11.77,23,18.13l2.24,2c1,.88,2,1.83,3,2.75a62,62,0,0,0,8.16,6.73,77.88,77.88,0,0,1,6.56,5c3.66,3,7.45,6.08,12.19,8,5.58,2.21,11.45,2.52,17,2.52l2.77,0a56,56,0,0,0,16-2.33,35.4,35.4,0,0,0,10.09-4.94l.38-.27c2.52-1.8,5.38-3.84,6.91-6.89a4.28,4.28,0,0,0,.28-4c-.92-1.75-3.11-2.26-4.91-2.51-5.36-.75-10.86-1-16.18-1.23-1.67-.07-3.33-.14-5-.23-4.94-.26-8.72-.38-12.24-.38s-6.73.12-9.79.37a65.89,65.89,0,0,0-6.81,1,42.11,42.11,0,0,1-7.46.93,15.61,15.61,0,0,1-3.13-.3c-3.21-.65-6-2-9.45-4.82-5.52-4.42-9.93-9.62-14.59-15.13-1.57-1.86-3.2-3.78-4.86-5.65A175.07,175.07,0,0,0,31.14,13.16l-.41-.34-.46-.37c-4.89-4-10.17-8.06-16.09-10.66A17.3,17.3,0,0,0,7.39,0Z"/><path class="cls-2" d="M142.54,63.33a86.34,86.34,0,0,1-23.39,4.81c-7.7.42-15.41.14-23.1-.21-7.12-.32-14.43-1.27-21.12-3.85"/><path class="cls-2" d="M5.5,5.47a11.63,11.63,0,0,0,.86,2.39,20.73,20.73,0,0,0,8.32,8.51,115.43,115.43,0,0,0,11.44,6,74.14,74.14,0,0,1,12,7.22c5.57,3.92,11.43,8,16,13.06"/><path class="cls-3" d="M145.57,60.61c-3.65-5.55-6.73-11.21-12.2-15.35-17.3-13.09-43.82-8.88-54.56,10.29-3.66,6.54,1.17,14,5.24,19,4.6,5.74,7.69,12.78,13.29,17.69a13.37,13.37,0,0,0,15.56,1.93c3.56-1.76,6.52-4.51,9.45-7.19,7.28-6.7,16.77-11,22.62-19.31A6.85,6.85,0,0,0,146.49,63,5.51,5.51,0,0,0,145.57,60.61Z"/><path class="cls-4" d="M99,88.62a9.93,9.93,0,0,0,6.4,3.2,10.38,10.38,0,0,0,8.32-3.52"/></g></g></svg>