<svg xmlns="http://www.w3.org/2000/svg" viewBox="0 0 147.03 112.63"><defs><style>.cls-1{fill:#ccc;}.cls-2,.cls-4,.cls-5{fill:none;}.cls-2,.cls-3{stroke:#000;}.cls-2,.cls-3,.cls-4,.cls-5{stroke-linecap:round;}.cls-2,.cls-4{stroke-miterlimit:10;}.cls-2{stroke-width:0.75px;}.cls-3{fill:#fcd615;opacity:0.85;}.cls-3,.cls-5{stroke-linejoin:round;}.cls-4,.cls-5{stroke:#fff;}.cls-4{stroke-width:2px;}</style></defs><g id="Layer_2" data-name="Layer 2"><g id="Layer_1-2" data-name="Layer 1"><path class="cls-1" d="M109.83,79c-5.44,0-11.22-.3-16.68-2.46-4.64-1.84-8.38-4.9-12-7.85a75.33,75.33,0,0,0-6.63-5,61.31,61.31,0,0,1-8-6.65c-1-.94-2-1.88-3.05-2.77l-2.23-2c-7.26-6.38-14.76-13-23.11-18.21-3.85-2.41-8-4.62-12.05-6.75-2.42-1.28-4.92-2.61-7.33-4A95.21,95.21,0,0,1,9,17.18l-.91-.66C5.53,14.68,2.35,12.4,1.13,9.36a6.08,6.08,0,0,1,.28-4.85A6.52,6.52,0,0,1,5.22,1.06,7.32,7.32,0,0,1,7.4.75a16.8,16.8,0,0,1,6.48,1.72C19.72,5,25,9.1,29.8,13l.87.71a174.27,174.27,0,0,1,20.59,20c1.65,1.87,3.28,3.79,4.85,5.65,4.69,5.53,9.11,10.76,14.7,15.23,3.6,2.85,6.42,4.29,9.76,5a15.6,15.6,0,0,0,3.28.32,43.32,43.32,0,0,0,7.6-.94,65.14,65.14,0,0,1,6.73-1c3-.25,6.22-.37,9.73-.37s7.28.12,12.21.38c1.65.09,3.31.16,5,.23,5.31.24,10.79.48,16.11,1.22,1.63.23,3.6.67,4.36,2.12a3.59,3.59,0,0,1-.29,3.35c-1.45,2.88-4.23,4.87-6.68,6.62l-.38.28a35,35,0,0,1-9.88,4.83,55.55,55.55,0,0,1-15.75,2.29Z"/><path d="M7.39,1.5a16.08,16.08,0,0,1,6.18,1.66c5.77,2.53,10.89,6.51,15.76,10.45l.87.71A174.73,174.73,0,0,1,50.7,34.26c6.41,7.23,12,14.89,19.64,21a23.34,23.34,0,0,0,10.08,5.11,17.23,17.23,0,0,0,3.42.33c4.55,0,9.19-1.52,14.41-1.94,3.21-.26,6.43-.36,9.66-.36,4,0,8.11.16,12.16.38,7,.37,14.11.48,21,1.44,2.47.35,5.13,1.16,3.5,4.39-1.44,2.86-4.29,4.81-6.83,6.63a33.87,33.87,0,0,1-9.66,4.72,54.74,54.74,0,0,1-15.53,2.26l-2.76,0c-5.57,0-11.17-.34-16.41-2.41C86.21,72.94,81.29,67.13,74.93,63c-4-2.58-7.44-6.23-11-9.35-8.18-7.16-16.2-14.45-25.44-20.24-6.19-3.88-13-7.12-19.42-10.74a94.59,94.59,0,0,1-9.63-6.09c-2.69-2-6.33-4.32-7.62-7.5a5.87,5.87,0,0,1,3.62-7.3A6.43,6.43,0,0,1,7.39,1.5m0-1.5A8.47,8.47,0,0,0,5,.34,7.18,7.18,0,0,0,.74,4.19,6.77,6.77,0,0,0,.43,9.64c1.31,3.24,4.58,5.6,7.22,7.49l.9.66A95.52,95.52,0,0,0,18.34,24c2.42,1.36,4.93,2.69,7.35,4,4,2.12,8.17,4.32,12,6.72,8.29,5.2,15.77,11.77,23,18.13l2.24,2c1,.88,2,1.83,3,2.75a62.61,62.61,0,0,0,8.16,6.73,76.3,76.3,0,0,1,6.56,5c3.66,3,7.45,6.08,12.19,8,5.58,2.21,11.45,2.52,17,2.52l2.77,0a56,56,0,0,0,16-2.33,35.4,35.4,0,0,0,10.09-4.94l.38-.27c2.52-1.8,5.38-3.85,6.91-6.89a4.28,4.28,0,0,0,.28-4c-.92-1.75-3.11-2.26-4.91-2.51-5.36-.75-10.86-1-16.18-1.23-1.67-.07-3.33-.14-5-.23-4.94-.26-8.72-.38-12.24-.38s-6.73.12-9.79.37a65.89,65.89,0,0,0-6.81,1,42.11,42.11,0,0,1-7.47.93,15.58,15.58,0,0,1-3.12-.3c-3.21-.65-6-2-9.45-4.82-5.52-4.42-9.93-9.62-14.59-15.13-1.57-1.86-3.2-3.78-4.86-5.65A175.07,175.07,0,0,0,31.14,13.16l-.4-.33-.47-.38c-4.89-4-10.17-8.06-16.09-10.66A17.3,17.3,0,0,0,7.39,0Z"/><path class="cls-2" d="M142.54,63.33a86.34,86.34,0,0,1-23.39,4.81c-7.7.42-15.41.14-23.1-.21-7.12-.32-14.43-1.27-21.12-3.85"/><path class="cls-2" d="M5.5,5.47a11.63,11.63,0,0,0,.86,2.39,20.73,20.73,0,0,0,8.32,8.51,115.43,115.43,0,0,0,11.44,6,74.14,74.14,0,0,1,12,7.22c5.57,3.92,11.43,8,16,13.06"/><path class="cls-3" d="M145.57,60.61c-3.65-5.55-6.73-11.21-12.2-15.35-17.3-13.09-43.82-8.88-54.56,10.29-3.66,6.54,1.17,14,5.24,19,5,6.21,12.14,11.69,15.17,19.28,2,5.06-1.94,13.49,3.15,17.16,4.22,3,10.19-.75,11.55-5.13s.49-9,2.6-13c1.85-3.56,5.4-6.1,8.55-8.53,7.05-5.42,14.69-9.26,19.9-16.62A6.85,6.85,0,0,0,146.49,63,5.51,5.51,0,0,0,145.57,60.61Z"/><path class="cls-4" d="M111.08,43.2a28.21,28.21,0,0,1,24.42,9.91"/><path class="cls-5" d="M103.45,106.5a3.75,3.75,0,0,0,2.94,1.87,3.61,3.61,0,0,0,3.47-2.4"/></g></g></svg>